<?xml version="1.0" encoding="utf-8"?>
<!-- Generator: Adobe Illustrator 24.1.0, SVG Export Plug-In . SVG Version: 6.00 Build 0)  -->
<svg version="1.1" id="png" xmlns="http://www.w3.org/2000/svg" xmlns:xlink="http://www.w3.org/1999/xlink" x="0px" y="0px"
	 viewBox="0 0 370 80" style="enable-background:new 0 0 370 80;" xml:space="preserve">
<style type="text/css">
	.st0{fill:#EEEEEE;}
	.st1{fill:#999999;}
	.st2{fill:#555555;}
</style>
<path class="st0" d="M20.8,6.3c0.3-1.4,1.6-2.4,3-2.3h3c0.7,0,1.4,0.3,1.8,0.9c0.4,0.7,0.5,1.5,0.2,2.3L11.4,76
	c-0.3,1.4-1.6,2.4-3.1,2.3h-3c-0.7,0-1.4-0.3-1.8-0.9c-0.4-0.7-0.5-1.5-0.3-2.2L20.8,6.3z"/>
<path class="st0" d="M38.4,55.1l10.7-17.7c1.8-3.2,4.2-6,7-8.4c2.4-1.9,4.4-2.8,6.1-2.8h2.2c0.9,0,1.8,0.1,2.6,0.5
	c0.8,0.6,1.3,1.5,1.5,2.5c0.4,1.3,0.2,3.3-0.6,5.8L56.4,76.8c-0.1,0.8-0.8,1.5-1.7,1.4h-5.4c-1,0-1.3-0.8-0.8-2.4l10.8-35.2
	c0.4-1.2,0.7-2.4,0.8-3.6c0-0.6-0.2-0.9-0.7-0.9c-0.7,0.1-1.3,0.4-1.7,0.9c-1,1-1.9,2.2-2.6,3.4c-1.3,1.9-2.9,4.3-4.7,7.3
	c-1.8,3-4.1,6.6-7,11c-5.3,8.1-9.1,14.1-11.4,18.2c-0.5,0.9-1.5,1.4-2.6,1.4h-3c-0.4,0-0.8-0.3-1.1-0.8c-0.3-0.6-0.3-1.2-0.1-1.8
	l12.5-46.7c0.3-1.8,1.1-2.7,2.1-2.7h4.4c1.7,0,2.3,1,1.7,3L38.4,55.1z"/>
<path class="st0" d="M102,31.9c1.1,1.2,1.2,2.2,0.4,3.2l-1.7,2c-1.2,1.3-2.2,1.5-3.1,0.5l-1.1-1.2c-2.5-2.5-4.4-3.6-5.9-3.3
	c-2.5,0.5-5.1,3.1-7.8,7.9c-2.7,4.6-4.7,9.6-5.9,14.8c-1.2,5.1-1.5,9.3-0.9,12.7c0.3,1,1,1.8,1.9,2.3c0.7,0.6,1.7,0.9,2.6,0.8
	c2.6-1.6,5-3.7,6.9-6.2c0.8-1,1.9-1.1,3.3-0.2l1.6,1c2.2,1.3,0.3,4.4-5.6,9.1c-2.4,2.1-4.3,3.3-5.7,3.7c-1.3,0.4-3.4-0.1-6.2-1.5
	c-2.8-1.4-4.5-2.8-5.1-4.2c-1.9-4.2-1.9-10.1-0.1-17.8s4.1-13.6,6.8-17.7c2.2-3.5,4.8-6.6,7.9-9.3c2.3-2,5.3-3,8.3-2.8
	C95.6,26.1,98.7,28.1,102,31.9"/>
<path class="st0" d="M116.5,39.9c1.8-3.1,3.8-6,6-8.8c1.2-1.6,2.5-3.1,4.1-4.4c1.4-0.7,2.9-1,4.5-0.9h1c2,0,2.7,0.8,2.1,2.3
	c-0.6,1.2-1.5,2.2-2.5,3c-2,1.9-3.8,4-5.4,6.2c-2.3,2.9-3.4,4.8-3.4,5.7c0.1,2,1.1,3.8,2.6,5c0.4,0.2,0.5,0.7,0.3,1.1
	c-0.2,0.4-0.6,0.7-1.1,0.8l-3.9,0.7c-0.9,0.2-1.8,0.1-2.5-0.3c-0.6-0.4-1.6-2-3-4.7L107.3,76c-0.3,1.4-1.7,2.4-3.1,2.2h-3
	c-1.9,0-2.7-0.8-2.3-2.3l12.5-47.7c0.3-1.3,1.5-2.2,2.9-2h3.2c0.6-0.1,1.3,0.1,1.8,0.5c0.3,0.3,0.4,0.9,0.2,1.7L116.5,39.9z"/>
<path class="st0" d="M135.3,64c-0.9,5.1,0,7.9,2.8,8.4c2.5-0.9,5.6-3.5,9.3-7.8c0.5-0.5,1.4-0.6,2-0.2l1.9,1.2
	c0.8,0.4,1.2,1.4,0.9,2.3c-1.3,2.5-3.7,5.1-7.2,7.9s-6.3,4-8.5,3.6c-4.8-1.2-7.7-3.8-8.5-7.7c-1-5.2-0.1-12.3,2.6-21.3
	c2.7-9,6.4-15.8,11.2-20.3c1.8-1.6,3.9-2.8,6.3-3.4c2.6-0.7,5.4-0.5,7.9,0.6c2.8,1.2,4.1,4.5,4.1,10c0,5.5-2.4,10.7-7.2,15.6
	C147.9,58,141.9,61.7,135.3,64 M136.5,57.4c2.9-1.2,5.7-2.8,8.2-4.8c2.3-1.9,4.2-4.1,5.6-6.7c1.4-2.5,2.2-5.3,2.2-8.1
	c0-2.8-0.8-4.2-2.4-4.2c-3.1,0-5.8,2.6-8.2,7.7C139.6,46.5,137.8,51.9,136.5,57.4"/>
<path class="st0" d="M205.3,3l-19.5,67.6c2.4-2,4.4-4.4,6.2-6.9c0.7-1.1,1.6-1.3,2.6-0.7l2.4,1.6c1.1,0.7,1.3,1.6,0.5,2.6
	c-2.3,2.8-4.9,5.4-7.7,7.6c-2.5,1.9-5.4,3.2-8.4,3.8c-0.8,0.3-1.6-0.1-1.8-0.9c0-0.1,0-0.1-0.1-0.2l-2-5.7c-1.3,1.8-2.8,3.4-4.5,4.8
	c-1.6,1.3-2.9,1.9-3.9,1.9h-0.2c-1.3,0-3.1-1.1-5.3-3.4c-2-1.9-3.3-4.5-3.4-7.3c-0.1-5.3,1.4-12.3,4.5-20.8s6-14.2,8.7-16.8
	c2.6-2.6,6.3-4,10-3.9c2.3,0,4.5,0.6,6.5,1.9l6.9-25.5c0.4-1.5,1.8-2.4,3.3-2.2h2.9C205,0.4,205.8,1.3,205.3,3 M188.3,34
	c-3.4-1.9-6.3-2-8.5-0.4c-2.3,1.6-4.5,5.3-6.6,10.9c-1.8,4.9-3.4,9.8-4.6,14.9c-1,4.3-1.1,7.2-0.4,8.9s1.8,1.8,3.4,0.4
	c3.2-2,6.1-5.7,8.6-11.2C182.8,51.9,185.4,44.1,188.3,34"/>
<path class="st0" d="M218.8,28.4l-12.4,47.7c-0.3,1.4-1.6,2.4-3.1,2.2h-3c-1.9,0-2.7-0.8-2.3-2.4l12.5-47.7c0.3-1.3,1.5-2.2,2.9-2
	h3.4c0.6-0.1,1.3,0.1,1.8,0.5C218.9,26.9,219,27.5,218.8,28.4 M216.9,10.6h1c1.2,0.1,2.3,0.6,3.1,1.6c0.9,0.9,1.5,2.2,1.4,3.6
	c0,1.3-0.5,2.6-1.5,3.4c-1,1-2.4,1.5-3.8,1.4h-0.8c-1.2,0-2.3-0.6-3.1-1.5c-1.9-2-1.8-5.1,0.1-7C214.2,11.1,215.5,10.5,216.9,10.6"
	/>
<path class="st0" d="M232.6,78.7c-2.3,0-4.6-0.7-6.6-2c-0.5,1-1.6,1.6-2.7,1.6h-1.7c-2.4,0-3.4-1.1-3-3.3l18.8-72.3
	c0.3-1.4,1.6-2.4,3.1-2.2h2.3c1.9,0,2.6,0.8,2.2,2.3l-8.9,35l1.5-2.5c1.3-2.3,3-4.4,5-6.2c1.9-1.7,3.4-2.5,4.5-2.5h0.2
	c0.9,0.2,1.8,0.6,2.6,1.2c1.3,0.9,2.5,2.1,3.4,3.4c1.1,1.3,1.9,2.8,2.3,4.4c0.4,1.5,0.3,4.3-0.3,8.4c-1.1,5.7-2.7,11.4-4.8,16.8
	c-2.6,7.1-5.2,11.9-7.9,14.4C239.9,77.5,236.3,78.8,232.6,78.7 M227.5,71.2c3.3,2,6.2,2.1,8.6,0.4c2.4-1.7,4.8-5.7,7.1-11.8
	c1.9-4.7,3.3-9.5,4.4-14.5c0.5-2.3,0.8-4.7,0.8-7.1c-0.1-1.2-0.8-2.2-1.9-2.7c-1.1-0.6-3,0.6-5.7,3.5c-3,3.4-5.3,7.4-6.9,11.6
	c-2.4,6.4-4.5,12.9-6.3,19.4L227.5,71.2z"/>
<path class="st0" d="M257.3,63.4c0.3-9.1,2.6-18,6.9-26c4.3-8.2,9.7-12.2,16.4-12.1c3.4,0.2,6.4,2.1,8,5.2c1.4,2.2,2,6,1.8,11.4
	c-0.2,9.9-3.1,19.7-8.3,28.1c-3.7,6.3-8.6,9.4-14.7,9.1c-2.3-0.1-4.5-1.2-6.1-2.9C258.4,73.6,257.1,69.3,257.3,63.4 M274.9,67.5
	c4.6-7.4,7.1-16,7.3-24.7c0.1-4-0.1-6.7-0.6-8.1c-0.4-1.3-1.6-2.2-3-2.1c-1.7,0-3.2,0.8-4.2,2.2c-1.5,1.9-2.7,3.9-3.7,6.2
	c-3.1,6.7-4.8,14.1-4.9,21.5c-0.1,6.2,0.9,9.4,3.2,9.6C270.9,72,272.9,70.5,274.9,67.5"/>
<path class="st0" d="M285.8,75.7c8.3-10.1,14.5-17.9,18.6-23.6c-1.7-7.2-3.7-14.6-6-22.2c-0.9-2.5-0.3-3.8,1.6-3.8h2.8
	c1.4,0,2.7,1,2.9,2.4c1.8,6.3,3.4,12.1,4.6,17.2c3-4.4,6.8-10.5,11.4-18.4c0.6-0.9,1.7-1.4,2.8-1.3h3.5c1.8,0,2,1.2,0.5,3.7
	c-5,8.3-10.4,16.4-16.2,24.2c1.6,7,3,14.3,4.2,22.1c0.2,1.4-0.4,2.1-1.6,2.2l-3.1,0.3c-0.6,0.2-1.3,0-1.8-0.4
	c-0.5-0.9-0.8-1.8-0.9-2.8c-0.7-4.7-1.6-9.5-2.7-14.6l-9.4,11.7l-2.6,3.3l-0.5,0.6l-0.5,0.6c-0.2,0.2-0.4,0.4-0.6,0.5l-0.7,0.3
	c-0.5,0.3-1.1,0.4-1.6,0.4h-2.9c-0.8,0.1-1.5-0.2-1.9-0.9C285.2,76.8,285.3,76.2,285.8,75.7"/>
<path class="st1" d="M351.3,5.5l-12.6,1.7c-0.1,0-0.2,0.1-0.2,0.2l-0.1,8.8c-0.2-0.1-0.5-0.1-0.7-0.1c-1.6,0-2.9,1.3-2.9,2.9
	c0,1.6,1.3,3,2.9,3c0,0,0,0,0,0l0,0c1.6,0,2.9-1.3,2.9-2.9l0.1-8.2l8.5-1.1v4.7c-0.2-0.1-0.5-0.1-0.7-0.1c-1.6,0-2.9,1.3-2.9,2.9
	c0,1.6,1.3,2.9,2.9,2.9c1.6,0,2.9-1.3,2.9-2.9l0.1-11.7C351.6,5.7,351.5,5.6,351.3,5.5C351.3,5.6,351.3,5.6,351.3,5.5"/>
<path class="st2" d="M367.5,0.5c-0.1,0-0.1-0.1-0.2-0.1l-8.5,1.2c-0.1,0-0.2,0.1-0.2,0.2v5.9c-0.1,0-0.3,0-0.4,0
	c-1.1,0-2.1,0.9-2.1,2.1s0.9,2.1,2.1,2.1l0,0c1.1,0,2-0.9,2.1-2.1V4.3l5.6-0.7v3c-0.1,0-0.3,0-0.4,0c-1.1,0-2.1,0.9-2.1,2.1
	s0.9,2.1,2.1,2.1c1.1,0,2-0.9,2.1-2l0-7.9c0-0.1,0-0.1-0.1-0.2L367.5,0.5z"/>
</svg>
