<svg id="icons" xmlns="http://www.w3.org/2000/svg" viewBox="0 0 546 78"><defs><style>.cls-1{fill:#efcf19;}.cls-2{fill:#a0aab4;}.cls-3{fill:#cba27a;}.cls-4{fill:#aaa;}.cls-5{fill:#bebebe;}.cls-6{fill:#cca70f;}.cls-7{fill:#78828c;}.cls-8{fill:#90682a;}.cls-9{fill:#828282;}.cls-10{fill:#d2d2d2;}.cls-11{fill:#c48a0c;}</style></defs><title>top-stars</title><polygon class="cls-1" points="39 0 44.66 10.56 53.92 2.97 55.11 14.89 66.58 11.42 63.11 22.89 75.03 24.07 67.44 33.34 78 39 67.44 44.66 75.03 53.92 63.11 55.11 66.58 66.58 55.11 63.11 53.92 75.03 44.66 67.44 39 78 33.34 67.44 24.07 75.03 22.89 63.11 11.42 66.58 14.89 55.11 2.97 53.92 10.56 44.66 0 39 10.56 33.34 2.97 24.07 14.89 22.89 11.42 11.42 22.89 14.89 24.07 2.97 33.34 10.56 39 0"/><polygon class="cls-2" points="117 2 122.66 10.56 131.16 4.82 133.11 14.89 143.16 12.84 141.11 22.89 151.18 24.84 145.44 33.34 154 39 145.44 44.66 151.18 53.16 141.11 55.11 143.16 65.16 133.11 63.11 131.16 73.18 122.66 67.44 117 76 111.34 67.44 102.84 73.18 100.89 63.11 90.84 65.16 92.89 55.11 82.82 53.16 88.56 44.66 80 39 88.56 33.34 82.82 24.84 92.89 22.89 90.84 12.84 100.89 14.89 102.84 4.82 111.34 10.56 117 2"/><polygon class="cls-3" points="195 4 200.66 10.56 208.39 6.66 211.11 14.89 219.75 14.25 219.11 22.89 227.34 25.61 223.44 33.34 230 39 223.44 44.66 227.34 52.39 219.11 55.11 219.75 63.75 211.11 63.11 208.39 71.34 200.66 67.44 195 74 189.34 67.44 181.61 71.34 178.89 63.11 170.25 63.75 170.89 55.11 162.66 52.39 166.56 44.66 160 39 166.56 33.34 162.66 25.61 170.89 22.89 170.25 14.25 178.89 14.89 181.61 6.66 189.34 10.56 195 4"/><polygon class="cls-4" points="273 6 278.66 10.56 285.63 8.51 289.11 14.89 296.33 15.66 297.11 22.89 303.49 26.37 301.44 33.34 306 39 301.44 44.66 303.49 51.63 297.11 55.11 296.33 62.34 289.11 63.11 285.63 69.49 278.66 67.44 273 72 267.34 67.44 260.37 69.49 256.89 63.11 249.66 62.34 248.89 55.11 242.51 51.63 244.56 44.66 240 39 244.56 33.34 242.51 26.37 248.89 22.89 249.66 15.66 256.89 14.89 260.37 8.51 267.34 10.56 273 6"/><polygon class="cls-5" points="352.63 8 358.29 10.56 364.49 10.36 368.74 14.89 374.55 17.08 376.74 22.89 381.27 27.14 381.07 33.34 383.63 39 381.07 44.66 381.27 50.86 376.74 55.11 374.55 60.92 368.74 63.11 364.49 67.64 358.29 67.44 352.63 70 346.97 67.44 340.76 67.64 336.52 63.11 330.71 60.92 328.51 55.11 323.99 50.86 324.18 44.66 321.63 39 324.18 33.34 323.99 27.14 328.51 22.89 330.71 17.08 336.52 14.89 340.76 10.36 346.97 10.56 352.63 8"/><path class="cls-6" d="M72.1,54.67a5.11,5.11,0,0,0-2.58,3.91,5.88,5.88,0,0,0,4.87-.39A5.71,5.71,0,0,0,77,53.91,6.85,6.85,0,0,0,72.1,54.67Z"/><path class="cls-6" d="M68,53.05a6.86,6.86,0,0,0-1.2-4.81A5.7,5.7,0,0,0,63.9,52.3a5.85,5.85,0,0,0,1.52,4.64A5.1,5.1,0,0,0,68,53.05Z"/><path class="cls-6" d="M63.21,59.16a6.84,6.84,0,0,0-.55-4.93,5.78,5.78,0,0,0-3.45,3.64,5.92,5.92,0,0,0,.91,4.8A5.05,5.05,0,0,0,63.21,59.16Z"/><path class="cls-6" d="M57.38,61.88a6.84,6.84,0,0,0-.09-5,5.72,5.72,0,0,0-3.77,3.3A5.88,5.88,0,0,0,54,65.09,5.06,5.06,0,0,0,57.38,61.88Z"/><path class="cls-6" d="M50.87,64.52a6.82,6.82,0,0,0,1.34-4.77,5.75,5.75,0,0,0-4.56,2.07,5.86,5.86,0,0,0-1,4.79A5.07,5.07,0,0,0,50.87,64.52Z"/><path class="cls-6" d="M74.13,49.4a5.75,5.75,0,0,0-.21-5,6.83,6.83,0,0,0-3.65,3.35,5.06,5.06,0,0,0,0,4.68A5.91,5.91,0,0,0,74.13,49.4Z"/><path class="cls-6" d="M69.32,60.15a5.09,5.09,0,0,0-3.61,3,5.87,5.87,0,0,0,4.77,1.07,5.73,5.73,0,0,0,3.75-3.32A6.85,6.85,0,0,0,69.32,60.15Z"/><path class="cls-6" d="M60.31,66.54a5.88,5.88,0,0,0,4.41,2.1,5.73,5.73,0,0,0,4.4-2.4,6.78,6.78,0,0,0-4.62-1.79A5.1,5.1,0,0,0,60.31,66.54Z"/><path class="cls-6" d="M59.44,67.77a5.07,5.07,0,0,0-4.62.73,5.86,5.86,0,0,0,3.57,3.33,5.68,5.68,0,0,0,4.91-1A6.84,6.84,0,0,0,59.44,67.77Z"/><path class="cls-6" d="M52.49,69.27a5.07,5.07,0,0,0-4.67.17A5.86,5.86,0,0,0,51,73.18a5.74,5.74,0,0,0,5-.37A6.81,6.81,0,0,0,52.49,69.27Z"/><path class="cls-6" d="M70.33,53.84,69,53.51c-.13.55-3.63,13.48-25.92,13.69l0,1.36C66.5,68.35,70.3,54,70.33,53.84Z"/><path class="cls-6" d="M8.48,58.58A5.11,5.11,0,0,0,5.9,54.67,6.85,6.85,0,0,0,1,53.91a5.71,5.71,0,0,0,2.61,4.28A5.88,5.88,0,0,0,8.48,58.58Z"/><path class="cls-6" d="M12.58,56.94A5.85,5.85,0,0,0,14.1,52.3a5.71,5.71,0,0,0-2.94-4.06A6.88,6.88,0,0,0,10,53.05,5.1,5.1,0,0,0,12.58,56.94Z"/><path class="cls-6" d="M17.88,62.67a5.92,5.92,0,0,0,.91-4.8,5.78,5.78,0,0,0-3.45-3.64,6.84,6.84,0,0,0-.55,4.93A5.05,5.05,0,0,0,17.88,62.67Z"/><path class="cls-6" d="M24,65.09a5.89,5.89,0,0,0,.45-4.86,5.72,5.72,0,0,0-3.77-3.3,6.84,6.84,0,0,0-.09,5A5.07,5.07,0,0,0,24,65.09Z"/><path class="cls-6" d="M31.31,66.61a5.86,5.86,0,0,0-1-4.79,5.75,5.75,0,0,0-4.56-2.07,6.82,6.82,0,0,0,1.34,4.77A5.07,5.07,0,0,0,31.31,66.61Z"/><path class="cls-6" d="M7.71,52.42a5.06,5.06,0,0,0,0-4.68,6.83,6.83,0,0,0-3.65-3.35,5.75,5.75,0,0,0-.21,5A5.91,5.91,0,0,0,7.71,52.42Z"/><path class="cls-6" d="M8.68,60.15a6.85,6.85,0,0,0-4.91.72,5.73,5.73,0,0,0,3.75,3.32,5.87,5.87,0,0,0,4.77-1.07A5.09,5.09,0,0,0,8.68,60.15Z"/><path class="cls-6" d="M17.69,66.54a5.1,5.1,0,0,0-4.19-2.09,6.81,6.81,0,0,0-4.62,1.79,5.73,5.73,0,0,0,4.4,2.4A5.88,5.88,0,0,0,17.69,66.54Z"/><path class="cls-6" d="M18.56,67.77a6.84,6.84,0,0,0-3.86,3.1,5.68,5.68,0,0,0,4.91,1,5.86,5.86,0,0,0,3.57-3.33A5.07,5.07,0,0,0,18.56,67.77Z"/><path class="cls-6" d="M25.51,69.27a6.81,6.81,0,0,0-3.46,3.54,5.74,5.74,0,0,0,5,.37,5.86,5.86,0,0,0,3.13-3.74A5.07,5.07,0,0,0,25.51,69.27Z"/><path class="cls-6" d="M9,53.51l-1.33.33C7.7,54,11.5,68.35,34.9,68.56V67.2C12.63,67,9.13,54.06,9,53.51Z"/><path class="cls-7" d="M149.23,54.78a5,5,0,0,0-2.51,3.81,5.73,5.73,0,0,0,4.74-.38A5.56,5.56,0,0,0,154,54.05,6.64,6.64,0,0,0,149.23,54.78Z"/><path class="cls-7" d="M145.26,53.21a6.62,6.62,0,0,0-1.16-4.68,5.56,5.56,0,0,0-2.86,3.95A5.71,5.71,0,0,0,142.72,57,4.91,4.91,0,0,0,145.26,53.21Z"/><path class="cls-7" d="M140.58,59.16a6.7,6.7,0,0,0-.54-4.8,5.61,5.61,0,0,0-3.36,3.54,5.74,5.74,0,0,0,.89,4.68A4.94,4.94,0,0,0,140.58,59.16Z"/><path class="cls-7" d="M134.9,61.8a6.68,6.68,0,0,0-.09-4.82,5.6,5.6,0,0,0-3.67,3.22,5.71,5.71,0,0,0,.44,4.73A5,5,0,0,0,134.9,61.8Z"/><path class="cls-7" d="M128.56,64.37a6.63,6.63,0,0,0,1.3-4.64,5.58,5.58,0,0,0-4.44,2,5.73,5.73,0,0,0-.94,4.66A4.93,4.93,0,0,0,128.56,64.37Z"/><path class="cls-7" d="M151.2,49.65a5.57,5.57,0,0,0-.2-4.88A6.62,6.62,0,0,0,147.45,48a4.9,4.9,0,0,0,0,4.55A5.7,5.7,0,0,0,151.2,49.65Z"/><path class="cls-7" d="M146.53,60.12A4.93,4.93,0,0,0,143,63a5.69,5.69,0,0,0,4.64,1,5.56,5.56,0,0,0,3.65-3.23A6.67,6.67,0,0,0,146.53,60.12Z"/><path class="cls-7" d="M137.75,66.34a5.76,5.76,0,0,0,4.3,2,5.61,5.61,0,0,0,4.28-2.34,6.66,6.66,0,0,0-4.5-1.75A5,5,0,0,0,137.75,66.34Z"/><path class="cls-7" d="M136.9,67.54a4.93,4.93,0,0,0-4.5.71,5.72,5.72,0,0,0,3.48,3.25,5.55,5.55,0,0,0,4.78-.94A6.63,6.63,0,0,0,136.9,67.54Z"/><path class="cls-7" d="M130.13,69a5,5,0,0,0-4.55.16,5.7,5.7,0,0,0,3.06,3.64,5.58,5.58,0,0,0,4.87-.35A6.69,6.69,0,0,0,130.13,69Z"/><path class="cls-7" d="M147.51,54l-1.3-.32c-.13.54-3.54,13.13-25.23,13.33v1.33C143.78,68.11,147.47,54.11,147.51,54Z"/><path class="cls-7" d="M87.28,58.59a5,5,0,0,0-2.51-3.81A6.64,6.64,0,0,0,80,54.05a5.56,5.56,0,0,0,2.54,4.16A5.73,5.73,0,0,0,87.28,58.59Z"/><path class="cls-7" d="M91.28,57a5.71,5.71,0,0,0,1.48-4.51,5.56,5.56,0,0,0-2.86-3.95,6.62,6.62,0,0,0-1.16,4.68A4.91,4.91,0,0,0,91.28,57Z"/><path class="cls-7" d="M96.43,62.58a5.74,5.74,0,0,0,.89-4.68A5.61,5.61,0,0,0,94,54.36a6.7,6.7,0,0,0-.54,4.8A4.94,4.94,0,0,0,96.43,62.58Z"/><path class="cls-7" d="M102.42,64.93a5.71,5.71,0,0,0,.44-4.73A5.6,5.6,0,0,0,99.19,57a6.68,6.68,0,0,0-.09,4.82A5,5,0,0,0,102.42,64.93Z"/><path class="cls-7" d="M109.52,66.41a5.73,5.73,0,0,0-.94-4.66,5.58,5.58,0,0,0-4.44-2,6.63,6.63,0,0,0,1.3,4.64A4.93,4.93,0,0,0,109.52,66.41Z"/><path class="cls-7" d="M86.53,52.59a4.9,4.9,0,0,0,0-4.55A6.62,6.62,0,0,0,83,44.77a5.57,5.57,0,0,0-.2,4.88A5.7,5.7,0,0,0,86.53,52.59Z"/><path class="cls-7" d="M87.47,60.12a6.67,6.67,0,0,0-4.77.7,5.56,5.56,0,0,0,3.65,3.23A5.73,5.73,0,0,0,91,63,4.93,4.93,0,0,0,87.47,60.12Z"/><path class="cls-7" d="M96.25,66.34a5,5,0,0,0-4.08-2,6.66,6.66,0,0,0-4.5,1.75A5.61,5.61,0,0,0,92,68.39,5.76,5.76,0,0,0,96.25,66.34Z"/><path class="cls-7" d="M97.1,67.54a6.63,6.63,0,0,0-3.76,3,5.55,5.55,0,0,0,4.78.94,5.72,5.72,0,0,0,3.48-3.25A4.93,4.93,0,0,0,97.1,67.54Z"/><path class="cls-7" d="M103.87,69a6.69,6.69,0,0,0-3.38,3.45,5.58,5.58,0,0,0,4.87.35,5.7,5.7,0,0,0,3.06-3.64A5,5,0,0,0,103.87,69Z"/><path class="cls-7" d="M87.79,53.65l-1.3.32c0,.14,3.73,14.14,26.52,14.34V67C91.33,66.78,87.92,54.19,87.79,53.65Z"/><path class="cls-8" d="M226.36,54.9a4.81,4.81,0,0,0-2.44,3.7,5.54,5.54,0,0,0,4.61-.37,5.41,5.41,0,0,0,2.47-4A6.44,6.44,0,0,0,226.36,54.9Z"/><path class="cls-8" d="M222.5,53.37a6.51,6.51,0,0,0-1.13-4.56,5.39,5.39,0,0,0-2.78,3.84,5.55,5.55,0,0,0,1.44,4.4A4.79,4.79,0,0,0,222.5,53.37Z"/><path class="cls-8" d="M217.94,59.15a6.46,6.46,0,0,0-.52-4.66,5.44,5.44,0,0,0-3.27,3.44,5.59,5.59,0,0,0,.86,4.55A4.81,4.81,0,0,0,217.94,59.15Z"/><path class="cls-8" d="M212.41,61.73a6.48,6.48,0,0,0-.08-4.69,5.44,5.44,0,0,0-3.57,3.12,5.58,5.58,0,0,0,.43,4.61A4.77,4.77,0,0,0,212.41,61.73Z"/><path class="cls-8" d="M206.25,64.23a6.52,6.52,0,0,0,1.27-4.52,5.43,5.43,0,0,0-4.33,2,5.6,5.6,0,0,0-.91,4.54A4.82,4.82,0,0,0,206.25,64.23Z"/><path class="cls-8" d="M228.28,49.9a5.42,5.42,0,0,0-.2-4.74,6.46,6.46,0,0,0-3.45,3.17,4.78,4.78,0,0,0,0,4.44A5.56,5.56,0,0,0,228.28,49.9Z"/><path class="cls-8" d="M223.73,60.09a4.82,4.82,0,0,0-3.43,2.82,5.61,5.61,0,0,0,4.52,1,5.42,5.42,0,0,0,3.55-3.15A6.44,6.44,0,0,0,223.73,60.09Z"/><path class="cls-8" d="M215.19,66.15a5.56,5.56,0,0,0,4.18,2,5.44,5.44,0,0,0,4.17-2.27,6.51,6.51,0,0,0-4.38-1.7A4.81,4.81,0,0,0,215.19,66.15Z"/><path class="cls-8" d="M214.36,67.31A4.78,4.78,0,0,0,210,68a5.55,5.55,0,0,0,3.38,3.16,5.4,5.4,0,0,0,4.65-.91A6.46,6.46,0,0,0,214.36,67.31Z"/><path class="cls-8" d="M207.78,68.73a4.81,4.81,0,0,0-4.43.16,5.56,5.56,0,0,0,3,3.54,5.4,5.4,0,0,0,4.73-.35A6.45,6.45,0,0,0,207.78,68.73Z"/><path class="cls-8" d="M224.68,54.11l-1.26-.31c-.13.52-3.44,12.77-24.55,13v1.29C221.05,67.86,224.65,54.25,224.68,54.11Z"/><path class="cls-8" d="M166.08,58.6a4.81,4.81,0,0,0-2.44-3.7,6.44,6.44,0,0,0-4.64-.72,5.41,5.41,0,0,0,2.47,4A5.54,5.54,0,0,0,166.08,58.6Z"/><path class="cls-8" d="M170,57.05a5.55,5.55,0,0,0,1.44-4.4,5.39,5.39,0,0,0-2.78-3.84,6.51,6.51,0,0,0-1.13,4.56A4.79,4.79,0,0,0,170,57.05Z"/><path class="cls-8" d="M175,62.48a5.59,5.59,0,0,0,.86-4.55,5.44,5.44,0,0,0-3.27-3.44,6.46,6.46,0,0,0-.52,4.66A4.81,4.81,0,0,0,175,62.48Z"/><path class="cls-8" d="M180.81,64.77a5.58,5.58,0,0,0,.43-4.61A5.44,5.44,0,0,0,177.67,57a6.48,6.48,0,0,0-.08,4.69A4.77,4.77,0,0,0,180.81,64.77Z"/><path class="cls-8" d="M187.72,66.21a5.6,5.6,0,0,0-.91-4.54,5.43,5.43,0,0,0-4.33-2,6.52,6.52,0,0,0,1.27,4.52A4.82,4.82,0,0,0,187.72,66.21Z"/><path class="cls-8" d="M165.35,52.77a4.78,4.78,0,0,0,0-4.44,6.46,6.46,0,0,0-3.45-3.17,5.42,5.42,0,0,0-.2,4.74A5.56,5.56,0,0,0,165.35,52.77Z"/><path class="cls-8" d="M166.27,60.09a6.44,6.44,0,0,0-4.64.68,5.42,5.42,0,0,0,3.55,3.15,5.61,5.61,0,0,0,4.52-1A4.82,4.82,0,0,0,166.27,60.09Z"/><path class="cls-8" d="M174.81,66.15a4.81,4.81,0,0,0-4-2,6.51,6.51,0,0,0-4.38,1.7,5.44,5.44,0,0,0,4.17,2.27A5.56,5.56,0,0,0,174.81,66.15Z"/><path class="cls-8" d="M175.64,67.31A6.46,6.46,0,0,0,172,70.25a5.4,5.4,0,0,0,4.65.91A5.59,5.59,0,0,0,180,68,4.8,4.8,0,0,0,175.64,67.31Z"/><path class="cls-8" d="M182.22,68.73a6.45,6.45,0,0,0-3.28,3.35,5.4,5.4,0,0,0,4.73.35,5.56,5.56,0,0,0,3-3.54A4.81,4.81,0,0,0,182.22,68.73Z"/><path class="cls-8" d="M166.58,53.8l-1.26.31c0,.14,3.63,13.75,25.8,14V66.77C170,66.57,166.71,54.32,166.58,53.8Z"/><path class="cls-9" d="M303.49,55a4.68,4.68,0,0,0-2.38,3.6,5.42,5.42,0,0,0,4.49-.36,5.27,5.27,0,0,0,2.4-3.94A6.27,6.27,0,0,0,303.49,55Z"/><path class="cls-9" d="M299.73,53.52a6.31,6.31,0,0,0-1.09-4.43,5.28,5.28,0,0,0-2.71,3.74,5.42,5.42,0,0,0,1.4,4.27A4.65,4.65,0,0,0,299.73,53.52Z"/><path class="cls-9" d="M295.3,59.15a6.32,6.32,0,0,0-.5-4.54A5.3,5.3,0,0,0,291.62,58a5.42,5.42,0,0,0,.84,4.42A4.67,4.67,0,0,0,295.3,59.15Z"/><path class="cls-9" d="M289.93,61.65a6.33,6.33,0,0,0-.08-4.56,5.3,5.3,0,0,0-3.48,3,5.44,5.44,0,0,0,.42,4.48A4.67,4.67,0,0,0,289.93,61.65Z"/><path class="cls-9" d="M283.93,64.08a6.25,6.25,0,0,0,1.24-4.39A5.27,5.27,0,0,0,281,61.6a5.39,5.39,0,0,0-.89,4.41A4.68,4.68,0,0,0,283.93,64.08Z"/><path class="cls-9" d="M305.36,50.16a5.31,5.31,0,0,0-.2-4.62,6.29,6.29,0,0,0-3.36,3.09,4.66,4.66,0,0,0,0,4.31A5.44,5.44,0,0,0,305.36,50.16Z"/><path class="cls-9" d="M300.93,60.06a4.68,4.68,0,0,0-3.33,2.74,5.41,5.41,0,0,0,4.39,1,5.28,5.28,0,0,0,3.46-3.06A6.32,6.32,0,0,0,300.93,60.06Z"/><path class="cls-9" d="M292.63,66a5.4,5.4,0,0,0,4.06,1.93,5.26,5.26,0,0,0,4.05-2.21A6.23,6.23,0,0,0,296.49,64,4.66,4.66,0,0,0,292.63,66Z"/><path class="cls-9" d="M291.83,67.08a4.65,4.65,0,0,0-4.26.67,5.39,5.39,0,0,0,3.29,3.07,5.24,5.24,0,0,0,4.52-.89A6.29,6.29,0,0,0,291.83,67.08Z"/><path class="cls-9" d="M285.42,68.46a4.67,4.67,0,0,0-4.3.15A5.43,5.43,0,0,0,284,72.06a5.28,5.28,0,0,0,4.6-.34A6.24,6.24,0,0,0,285.42,68.46Z"/><path class="cls-9" d="M301.86,54.24l-1.23-.3c-.12.51-3.34,12.42-23.87,12.61v1.26C298.33,67.62,301.82,54.38,301.86,54.24Z"/><path class="cls-9" d="M244.89,58.61a4.68,4.68,0,0,0-2.38-3.6,6.27,6.27,0,0,0-4.51-.7,5.27,5.27,0,0,0,2.4,3.94A5.42,5.42,0,0,0,244.89,58.61Z"/><path class="cls-9" d="M248.67,57.1a5.42,5.42,0,0,0,1.4-4.27,5.28,5.28,0,0,0-2.71-3.74,6.35,6.35,0,0,0-1.1,4.43A4.68,4.68,0,0,0,248.67,57.1Z"/><path class="cls-9" d="M253.54,62.38a5.42,5.42,0,0,0,.84-4.42,5.28,5.28,0,0,0-3.18-3.35,6.32,6.32,0,0,0-.5,4.54A4.67,4.67,0,0,0,253.54,62.38Z"/><path class="cls-9" d="M259.21,64.61a5.44,5.44,0,0,0,.42-4.48,5.3,5.3,0,0,0-3.48-3,6.33,6.33,0,0,0-.08,4.56A4.67,4.67,0,0,0,259.21,64.61Z"/><path class="cls-9" d="M265.92,66A5.39,5.39,0,0,0,265,61.6a5.27,5.27,0,0,0-4.2-1.91,6.25,6.25,0,0,0,1.24,4.39A4.68,4.68,0,0,0,265.92,66Z"/><path class="cls-9" d="M244.18,52.94a4.66,4.66,0,0,0,0-4.31,6.29,6.29,0,0,0-3.36-3.09,5.29,5.29,0,0,0-.19,4.62A5.43,5.43,0,0,0,244.18,52.94Z"/><path class="cls-9" d="M245.07,60.06a6.32,6.32,0,0,0-4.52.66A5.28,5.28,0,0,0,244,63.78a5.41,5.41,0,0,0,4.39-1A4.68,4.68,0,0,0,245.07,60.06Z"/><path class="cls-9" d="M253.37,66A4.66,4.66,0,0,0,249.51,64a6.26,6.26,0,0,0-4.25,1.65,5.26,5.26,0,0,0,4.05,2.21A5.4,5.4,0,0,0,253.37,66Z"/><path class="cls-9" d="M254.17,67.08a6.29,6.29,0,0,0-3.55,2.85,5.24,5.24,0,0,0,4.52.89,5.39,5.39,0,0,0,3.29-3.07A4.65,4.65,0,0,0,254.17,67.08Z"/><path class="cls-9" d="M260.58,68.46a6.24,6.24,0,0,0-3.19,3.26,5.28,5.28,0,0,0,4.6.34,5.43,5.43,0,0,0,2.89-3.45A4.67,4.67,0,0,0,260.58,68.46Z"/><path class="cls-9" d="M245.37,53.94l-1.23.3c0,.14,3.53,13.38,25.08,13.57l0-1.26C248.71,66.36,245.49,54.45,245.37,53.94Z"/><circle class="cls-10" cx="429" cy="39" r="30"/><polygon class="cls-11" points="507 0 513.66 5.53 521.92 2.97 525.96 10.63 534.58 11.42 535.37 20.04 543.03 24.07 540.47 32.34 546 39 540.47 45.66 543.03 53.92 535.37 57.96 534.58 66.58 525.96 67.37 521.92 75.03 513.66 72.47 507 78 500.34 72.47 492.07 75.03 488.04 67.37 479.42 66.58 478.63 57.96 470.97 53.92 473.53 45.66 468 39 473.53 32.34 470.97 24.07 478.63 20.04 479.42 11.42 488.04 10.63 492.07 2.97 500.34 5.53 507 0"/></svg>