<svg viewBox="0 0 217 165" xmlns="http://www.w3.org/2000/svg"><path d="m50.85 29.2 4.15 15.58 12.39-3.32 1.51-19.23-16.59 4.44a2.07 2.07 0 0 0 -1.46 2.53z"/><path d="m79.22 19.46-1.49 19.23 20.65-5.53 1.48-19.24z"/><path d="m110.19 11.16-1.49 19.23 20.65-5.53 1.48-19.23z"/><path d="m141.16 2.86-1.49 19.23 16.59-4.44a2.07 2.07 0 0 0 1.46-2.53l-3.64-13.59a2.07 2.07 0 0 0 -2.53-1.46z"/><path d="m55 44.78v70.76a4.3 4.3 0 0 0 4.29 4.29h98.31a4.28 4.28 0 0 0 4.27-4.28v-68.71a2.06 2.06 0 0 0 -2.06-2.06zm88.89 25h-70.89a2.06 2.06 0 0 1 -2.06-2.06v-5a2.06 2.06 0 0 1 2.06-2.02h70.91a2.07 2.07 0 0 1 2.09 2.06v5a2.07 2.07 0 0 1 -2.09 2.03z"/><g fill="#36b460"><path d="m203 101.51a14.51 14.51 0 0 0 -7.36 11.16 16.84 16.84 0 0 0 13.91-1.1c6.92-4 7.44-12.22 7.44-12.22a19.52 19.52 0 0 0 -13.99 2.16z"/><path d="m191.38 96.9a19.57 19.57 0 0 0 -3.38-13.74s-7.38 3.65-8.4 11.58a16.77 16.77 0 0 0 4.34 13.26 14.47 14.47 0 0 0 7.44-11.1z"/><path d="m177.64 114.33a19.54 19.54 0 0 0 -1.57-14.06s-7.79 2.66-9.86 10.39a16.87 16.87 0 0 0 2.6 13.71 14.51 14.51 0 0 0 8.83-10.04z"/><path d="m161 122.1a19.48 19.48 0 0 0 -.25-14.14s-8 1.92-10.77 9.42a16.81 16.81 0 0 0 1.3 13.89 14.46 14.46 0 0 0 9.72-9.17z"/><path d="m142.4 129.64a19.53 19.53 0 0 0 3.82-13.64s-8.21-.46-13 5.93a16.8 16.8 0 0 0 -2.75 13.67 14.49 14.49 0 0 0 11.93-5.96z"/><path d="m208.8 86.46c3.53-7.18-.59-14.31-.59-14.31a19.48 19.48 0 0 0 -10.42 9.57 14.43 14.43 0 0 0 .06 13.36 16.77 16.77 0 0 0 10.95-8.62z"/><path d="m195.08 117.17a14.5 14.5 0 0 0 -10.32 8.48 16.78 16.78 0 0 0 13.61 3c7.8-1.79 10.71-9.48 10.71-9.48a19.47 19.47 0 0 0 -14-2z"/><path d="m169.35 135.42a16.8 16.8 0 0 0 12.6 6c8 0 12.55-6.86 12.55-6.86a19.45 19.45 0 0 0 -13.2-5.11 14.48 14.48 0 0 0 -11.95 5.97z"/><path d="m166.86 138.92a14.46 14.46 0 0 0 -13.2 2.08 16.77 16.77 0 0 0 10.19 9.53c7.62 2.4 14-2.75 14-2.75a19.49 19.49 0 0 0 -10.99-8.86z"/><path d="m147 143.2a14.46 14.46 0 0 0 -13.34.48 16.82 16.82 0 0 0 9 10.69c7.3 3.3 14.28-1.06 14.28-1.06a19.56 19.56 0 0 0 -9.94-10.11z"/><path d="m195.92 98.63a1.92 1.92 0 0 0 -2.28 1.22c-2.61 7.37-16.39 36.25-71.55 37.41a1.94 1.94 0 0 0 -1.91 2 1.93 1.93 0 0 0 2 1.92c56.47-1.19 71.94-31.66 75.11-40a1.93 1.93 0 0 0 -1.37-2.55z"/><path d="m21.35 112.48a14.51 14.51 0 0 0 -7.35-11.16 19.52 19.52 0 0 0 -14-2.16s.52 8.21 7.44 12.22a16.84 16.84 0 0 0 13.91 1.1z"/><path d="m33.06 107.8a16.77 16.77 0 0 0 4.36-13.25c-1.02-7.93-8.42-11.55-8.42-11.55a19.57 19.57 0 0 0 -3.4 13.74 14.47 14.47 0 0 0 7.46 11.06z"/><path d="m48.19 124.18a16.87 16.87 0 0 0 2.6-13.71c-2.07-7.73-9.86-10.39-9.86-10.39a19.54 19.54 0 0 0 -1.57 14.06 14.51 14.51 0 0 0 8.83 10.04z"/><path d="m65.74 131.08a16.79 16.79 0 0 0 1.26-13.88c-2.78-7.51-10.77-9.43-10.77-9.43a19.48 19.48 0 0 0 -.23 14.14 14.46 14.46 0 0 0 9.74 9.17z"/><path d="m86.56 135.43a16.82 16.82 0 0 0 -2.75-13.68c-4.82-6.39-13-5.93-13-5.93a19.53 19.53 0 0 0 3.82 13.63 14.52 14.52 0 0 0 11.93 5.98z"/><path d="m19.15 94.89a14.43 14.43 0 0 0 .06-13.36 19.48 19.48 0 0 0 -10.42-9.53s-4.12 7.09-.59 14.27a16.77 16.77 0 0 0 10.95 8.62z"/><path d="m21.92 117a19.53 19.53 0 0 0 -14 2s2.91 7.69 10.71 9.48a16.78 16.78 0 0 0 13.61-3 14.52 14.52 0 0 0 -10.32-8.48z"/><path d="m47.65 135.23a14.48 14.48 0 0 0 -11.95-6 19.45 19.45 0 0 0 -13.2 5.11s4.56 6.85 12.55 6.86a16.8 16.8 0 0 0 12.6-5.97z"/><path d="m50.14 138.74a19.45 19.45 0 0 0 -11 8.85s6.42 5.15 14 2.75a16.77 16.77 0 0 0 10.19-9.53 14.48 14.48 0 0 0 -13.19-2.07z"/><path d="m70 143a19.53 19.53 0 0 0 -9.9 10.11s7 4.35 14.28 1.05a16.82 16.82 0 0 0 9-10.68 14.46 14.46 0 0 0 -13.38-.48z"/><path d="m21.08 98.44a1.93 1.93 0 0 0 -1.35 2.56c3.17 8.3 18.64 38.77 75.11 40a2 2 0 0 0 2-1.92 1.94 1.94 0 0 0 -1.91-2c-55.18-1.17-68.93-30.08-71.57-37.42a1.93 1.93 0 0 0 -2.28-1.22z"/></g><path d="m132.57 135.85a2.39 2.39 0 0 0 -1.93-1.65l-13.82-2-6.17-12.69a2.41 2.41 0 0 0 -2.15-1.36 2.38 2.38 0 0 0 -2.14 1.36l-6.18 12.69-13.82 2a2.39 2.39 0 0 0 -1.93 1.65 2.46 2.46 0 0 0 .6 2.49l10 9.88-2.36 13.95a2.46 2.46 0 0 0 1 2.37 2.42 2.42 0 0 0 1.33.46 2.32 2.32 0 0 0 1.11-.28l12.36-6.58 12.36 6.58a2.32 2.32 0 0 0 1.17.28 2.42 2.42 0 0 0 1.41-.46 2.46 2.46 0 0 0 1-2.37l-2.41-13.95 10-9.88a2.46 2.46 0 0 0 .57-2.49z" fill="#efcf19"/></svg>