<?xml version="1.0" encoding="utf-8"?>
<!-- Generator: Adobe Illustrator 24.1.0, SVG Export Plug-In . SVG Version: 6.00 Build 0)  -->
<svg version="1.1" id="Calque_1" xmlns="http://www.w3.org/2000/svg" xmlns:xlink="http://www.w3.org/1999/xlink" x="0px" y="0px"
	 viewBox="0 0 217 165" style="enable-background:new 0 0 217 165;" xml:space="preserve">
<style type="text/css">
	.st0{fill:#CCCCCC;}
	.st1{fill:#36B460;}
	.st2{fill:#EFCF19;}
</style>
<path class="st0" d="M50.8,29.2L55,44.8l12.4-3.3l1.5-19.2l-16.6,4.4C51.2,27,50.6,28.1,50.8,29.2z"/>
<path class="st0" d="M79.2,19.5l-1.5,19.2l20.7-5.5l1.5-19.2L79.2,19.5z"/>
<path class="st0" d="M110.2,11.2l-1.5,19.2l20.7-5.5l1.5-19.2L110.2,11.2z"/>
<path class="st0" d="M141.2,2.9l-1.5,19.2l16.6-4.4c1.1-0.3,1.8-1.4,1.5-2.5l-3.6-13.6c-0.3-1.1-1.4-1.8-2.5-1.5L141.2,2.9z"/>
<path class="st0" d="M55,44.8v70.8c0,2.4,1.9,4.3,4.3,4.3h98.3c2.4,0,4.3-1.9,4.3-4.3V46.8c0-1.1-0.9-2.1-2.1-2.1L55,44.8z
	 M143.9,69.8H73c-1.1,0-2.1-0.9-2.1-2.1v-5c0-1.1,0.9-2,2.1-2h70.9c1.1,0,2.1,0.9,2.1,2c0,0,0,0,0,0v5C146,68.9,145,69.8,143.9,69.8
	L143.9,69.8z"/>
<g>
	<path class="st1" d="M203,101.5c-4.1,2.3-6.9,6.5-7.4,11.2c4.6,1.7,9.7,1.3,13.9-1.1c6.9-4,7.4-12.2,7.4-12.2
		C212.2,98.3,207.2,99.1,203,101.5z"/>
	<path class="st1" d="M191.4,96.9c0.6-4.8-0.6-9.7-3.4-13.7c0,0-7.4,3.7-8.4,11.6c-0.5,4.8,1,9.7,4.3,13.3
		C188.1,105.7,190.9,101.6,191.4,96.9z"/>
	<path class="st1" d="M177.6,114.3c1.3-4.7,0.7-9.7-1.6-14.1c0,0-7.8,2.7-9.9,10.4c-1.2,4.7-0.2,9.7,2.6,13.7
		C173.2,122.7,176.5,118.9,177.6,114.3z"/>
	<path class="st1" d="M161,122.1c1.7-4.6,1.6-9.6-0.2-14.1c0,0-8,1.9-10.8,9.4c-1.6,4.6-1.1,9.7,1.3,13.9
		C155.8,130,159.5,126.6,161,122.1z"/>
	<path class="st1" d="M142.4,129.6c2.9-3.9,4.3-8.8,3.8-13.6c0,0-8.2-0.5-13,5.9c-2.9,3.9-3.9,8.9-2.8,13.7
		C135.2,135.7,139.6,133.4,142.4,129.6z"/>
	<path class="st1" d="M208.8,86.5c3.5-7.2-0.6-14.3-0.6-14.3c-4.5,1.8-8.3,5.2-10.4,9.6c-2.2,4.2-2.1,9.2,0.1,13.4
		C202.6,93.9,206.6,90.8,208.8,86.5z"/>
	<path class="st1" d="M195.1,117.2c-4.6,1-8.5,4.1-10.3,8.5c3.9,2.9,8.9,4,13.6,3c7.8-1.8,10.7-9.5,10.7-9.5
		C204.8,116.8,199.8,116.1,195.1,117.2L195.1,117.2z"/>
	<path class="st1" d="M169.4,135.4c3.1,3.7,7.7,5.9,12.6,6c8,0,12.6-6.9,12.6-6.9c-3.6-3.3-8.3-5.1-13.2-5.1
		C176.6,129.4,172.1,131.6,169.4,135.4L169.4,135.4z"/>
	<path class="st1" d="M166.9,138.9c-4.5-1.5-9.4-0.7-13.2,2.1c1.9,4.5,5.6,8,10.2,9.5c7.6,2.4,14-2.8,14-2.8
		C175.4,143.6,171.5,140.4,166.9,138.9z"/>
	<path class="st1" d="M147,143.2c-4.3-2-9.2-1.8-13.3,0.5c1.3,4.7,4.6,8.6,9,10.7c7.3,3.3,14.3-1.1,14.3-1.1
		C155,148.8,151.5,145.2,147,143.2z"/>
	<path class="st1" d="M195.9,98.6c-1-0.2-1.9,0.3-2.3,1.2c-2.6,7.4-16.4,36.3-71.6,37.4c-1.1,0-1.9,0.9-1.9,2c0,0,0,0,0,0
		c0,1.1,0.9,1.9,1.9,1.9c0,0,0,0,0.1,0c56.5-1.2,71.9-31.7,75.1-40c0.4-1-0.1-2.1-1.1-2.5C196.1,98.7,196,98.6,195.9,98.6z"/>
	<path class="st1" d="M21.4,112.5c-0.5-4.7-3.2-8.9-7.4-11.2c-4.2-2.4-9.2-3.2-14-2.2c0,0,0.5,8.2,7.4,12.2
		C11.7,113.7,16.8,114.1,21.4,112.5z"/>
	<path class="st1" d="M33.1,107.8c3.3-3.6,4.9-8.4,4.4-13.2C36.4,86.6,29,83,29,83c-2.8,4-4,8.9-3.4,13.7
		C26.1,101.4,28.9,105.5,33.1,107.8z"/>
	<path class="st1" d="M48.2,124.2c2.8-4,3.8-9,2.6-13.7c-2.1-7.7-9.9-10.4-9.9-10.4c-2.3,4.3-2.8,9.3-1.6,14.1
		C40.5,118.7,43.8,122.5,48.2,124.2z"/>
	<path class="st1" d="M65.7,131.1c2.4-4.2,2.9-9.3,1.3-13.9c-2.8-7.5-10.8-9.4-10.8-9.4c-1.8,4.5-1.9,9.6-0.2,14.1
		C57.6,126.4,61.2,129.8,65.7,131.1z"/>
	<path class="st1" d="M86.6,135.4c1.1-4.7,0.1-9.7-2.8-13.7c-4.8-6.4-13-5.9-13-5.9c-0.5,4.9,0.9,9.7,3.8,13.6
		C77.4,133.3,81.8,135.5,86.6,135.4z"/>
	<path class="st1" d="M19.1,94.9c2.2-4.2,2.2-9.2,0.1-13.4c-2.2-4.4-5.9-7.8-10.4-9.5c0,0-4.1,7.1-0.6,14.3
		C10.4,90.6,14.4,93.7,19.1,94.9z"/>
	<path class="st1" d="M21.9,117c-4.8-1.1-9.7-0.4-14,2c0,0,2.9,7.7,10.7,9.5c4.8,1,9.7-0.1,13.6-3C30.4,121.1,26.5,118,21.9,117z"/>
	<path class="st1" d="M47.7,135.2c-2.8-3.8-7.2-6.1-12-6c-4.9,0-9.6,1.8-13.2,5.1c0,0,4.6,6.9,12.5,6.9
		C39.9,141.1,44.5,139,47.7,135.2z"/>
	<path class="st1" d="M50.1,138.7c-4.6,1.5-8.6,4.6-11,8.9c0,0,6.4,5.1,14,2.8c4.6-1.5,8.3-5,10.2-9.5
		C59.5,138,54.6,137.2,50.1,138.7z"/>
	<path class="st1" d="M70,143c-4.4,2-8,5.6-9.9,10.1c0,0,7,4.4,14.3,1.1c4.4-2.1,7.7-6,9-10.7C79.3,141.1,74.3,141,70,143L70,143z"
		/>
	<path class="st1" d="M21.1,98.4c-1,0.3-1.7,1.3-1.4,2.3c0,0.1,0,0.2,0.1,0.2c3.2,8.3,18.6,38.8,75.1,40c1.1,0,2-0.8,2-1.9
		c0-1.1-0.8-2-1.9-2c0,0,0,0,0,0C39.7,135.9,26,107,23.4,99.7C23,98.7,22,98.2,21.1,98.4z"/>
</g>
<path class="st2" d="M132.6,135.9c-0.3-0.9-1-1.5-1.9-1.6l-13.8-2l-6.2-12.7c-0.4-0.8-1.2-1.4-2.2-1.4c-0.9,0-1.7,0.5-2.1,1.4
	l-6.2,12.7l-13.8,2c-0.9,0.1-1.7,0.8-1.9,1.6c-0.3,0.9-0.1,1.8,0.6,2.5l10,9.9l-2.4,13.9c-0.1,0.9,0.2,1.8,1,2.4
	c0.4,0.3,0.9,0.4,1.3,0.5c0.4,0,0.8-0.1,1.1-0.3l12.4-6.6l12.4,6.6c0.4,0.2,0.8,0.3,1.2,0.3c0.5,0,1-0.2,1.4-0.5
	c0.8-0.5,1.1-1.5,1-2.4l-2.4-13.9l10-9.9C132.6,137.7,132.9,136.7,132.6,135.9L132.6,135.9z"/>
</svg>
