<svg id="png" xmlns="http://www.w3.org/2000/svg" viewBox="0 0 370 80"><defs><style>.cls-1{fill:#5a5a5a;}.cls-2{fill:#aaa;}</style></defs><title>info-titre</title><path d="M20.84,6.26A2.84,2.84,0,0,1,23.89,4h3a1.94,1.94,0,0,1,1.78.94,2.93,2.93,0,0,1,.22,2.32L11.4,76A2.84,2.84,0,0,1,8.33,78.3h-3a2,2,0,0,1-1.78-.93,2.86,2.86,0,0,1-.28-2.23Z"/><path d="M38.41,55.13,49.08,37.42a31.33,31.33,0,0,1,7-8.4q3.58-2.82,6.14-2.82h2.16a5.07,5.07,0,0,1,2.58.55,4.19,4.19,0,0,1,1.5,2.51q.57,2-.58,5.76L56.4,76.85a1.58,1.58,0,0,1-1.65,1.45H49.38q-1.5,0-.8-2.45L59.35,40.62a17.06,17.06,0,0,0,.8-3.63q0-.88-.7-.88a2.71,2.71,0,0,0-1.68.93,21.92,21.92,0,0,0-2.63,3.39q-2,2.81-4.71,7.28t-7,11q-8,12.1-11.41,18.17a2.8,2.8,0,0,1-2.57,1.37h-3q-.63,0-1.07-.83a2.33,2.33,0,0,1-.14-1.83L37.72,28.85q.52-2.65,2.14-2.66h4.38q2.52,0,1.72,3Z"/><path d="M102,31.91q1.65,1.75.4,3.21l-1.7,2q-1.76,2-3.11.5l-1.1-1.25q-3.71-3.76-5.86-3.26-3.71.7-7.82,7.89a55,55,0,0,0-5.89,14.83Q75.13,63.42,76,68.53a3.5,3.5,0,0,0,1.9,2.28,4,4,0,0,0,2.61.83,25,25,0,0,0,6.86-6.16q1.15-1.55,3.31-.2l1.55,1q3.26,2-5.56,9.07Q83,78.5,81,79.07t-6.23-1.53q-4.18-2.11-5.14-4.16-2.86-6.26-.08-17.81t6.81-17.66a42.1,42.1,0,0,1,7.9-9.29,11.07,11.07,0,0,1,8.32-2.76q4.46.43,9.47,6"/><path d="M116.46,39.93a90.57,90.57,0,0,1,6-8.82,24.52,24.52,0,0,1,4.06-4.38,8.33,8.33,0,0,1,4.48-.88h1q3,0,2.05,2.3a9.71,9.71,0,0,1-2.51,3,52.86,52.86,0,0,0-5.44,6.16q-3.43,4.36-3.43,5.66A6.86,6.86,0,0,0,125.28,48a.87.87,0,0,1,.35,1.08,1.44,1.44,0,0,1-1.05.78l-3.91.7a3.2,3.2,0,0,1-2.53-.35q-.88-.65-3-4.65l-7.87,30.46a2.93,2.93,0,0,1-3.12,2.24h-3q-2.92,0-2.27-2.35l12.52-47.69a2.6,2.6,0,0,1,2.87-2.05h3.17a2.62,2.62,0,0,1,1.81.45q.45.45.15,1.71Z"/><path d="M135.26,64q-1.4,7.61,2.79,8.42,3.74-1.42,9.27-7.75a1.57,1.57,0,0,1,2-.2l1.94,1.21a1.93,1.93,0,0,1,.9,2.28q-2,3.74-7.21,7.94t-8.47,3.59q-7.26-1.87-8.52-7.69-1.45-7.79,2.56-21.27T141.74,30.2A15.82,15.82,0,0,1,148,26.77a11.42,11.42,0,0,1,7.9.63q4.16,1.75,4.11,10T152.78,53a45.11,45.11,0,0,1-17.52,11m1.25-6.56a34.86,34.86,0,0,0,8.19-4.81,22.93,22.93,0,0,0,5.63-6.71,16.41,16.41,0,0,0,2.22-8.12q0-4.16-2.39-4.16-4.68,0-8.19,7.69a84.19,84.19,0,0,0-5.45,16.11"/><path d="M205.32,3,185.81,70.64A35.3,35.3,0,0,0,192,63.72q1.1-1.65,2.55-.7L197,64.67q1.66,1.1.5,2.55a54.54,54.54,0,0,1-7.74,7.64,21.19,21.19,0,0,1-8.45,3.83,1.45,1.45,0,0,1-1.9-1.1l-2-5.66a25.46,25.46,0,0,1-4.46,4.76q-2.36,1.9-3.85,1.9h-.21q-2,0-5.31-3.38a10.72,10.72,0,0,1-3.41-7.29q-.1-8,4.53-20.84t8.66-16.81a13.32,13.32,0,0,1,10-3.88,12.27,12.27,0,0,1,6.46,1.85L196.68,2.7A3.12,3.12,0,0,1,200,.45h2.86Q206,.45,205.32,3M188.26,34q-5.11-2.86-8.54-.4t-6.56,10.92a117.34,117.34,0,0,0-4.56,14.88q-1.43,6.41-.4,8.87t3.38.4q4.81-3,8.64-11.24t8-23.43"/><path d="M218.81,28.36,206.39,76.05a2.85,2.85,0,0,1-3.07,2.24h-3q-2.87,0-2.27-2.36l12.52-47.69a2.59,2.59,0,0,1,2.86-2.05h3.41a2.6,2.6,0,0,1,1.8.45q.45.45.19,1.71m-1.89-17.79h1A4.29,4.29,0,0,1,221,12.12a5.06,5.06,0,0,1,1.45,3.56,4.57,4.57,0,0,1-1.5,3.43,5.24,5.24,0,0,1-3.76,1.43h-.8a4.18,4.18,0,0,1-3.13-1.48,5.05,5.05,0,0,1,.05-7,4.73,4.73,0,0,1,3.58-1.5"/><path d="M232.65,78.7a12.19,12.19,0,0,1-6.56-2,2.86,2.86,0,0,1-2.72,1.58h-1.73q-3.57,0-3-3.31L237.46,2.7A2.84,2.84,0,0,1,240.53.45h2.33q2.83,0,2.23,2.34l-8.94,35,1.5-2.55A27.21,27.21,0,0,1,242.6,29q2.78-2.55,4.53-2.55h.2a5.66,5.66,0,0,1,2.55,1.18A15.65,15.65,0,0,1,253.32,31a12.2,12.2,0,0,1,2.31,4.41q.63,2.31-.3,8.42a93.11,93.11,0,0,1-4.83,16.78Q246.58,71.23,242.6,75a14,14,0,0,1-9.95,3.73m-5.16-7.57q5,3,8.63.4t7.08-11.8a96.48,96.48,0,0,0,4.43-14.48,32.41,32.41,0,0,0,.84-7.09,3.14,3.14,0,0,0-1.86-2.71q-1.71-.85-5.68,3.54a38.35,38.35,0,0,0-6.85,11.64,202.62,202.62,0,0,0-6.29,19.44Z"/><path d="M257.3,63.42a59.65,59.65,0,0,1,6.89-26q6.43-12.27,16.38-12.07a9.6,9.6,0,0,1,8,5.16q2.16,3.36,1.76,11.37A55.62,55.62,0,0,1,282,70q-5.48,9.47-14.72,9.12a9,9,0,0,1-6.08-2.86q-4.22-4-3.92-12.82m17.57,4.08a48.5,48.5,0,0,0,7.28-24.7q.1-6-.62-8.12a3,3,0,0,0-3-2.12,5.26,5.26,0,0,0-4.16,2.17,26.43,26.43,0,0,0-3.66,6.15,52.08,52.08,0,0,0-4.9,21.48q-.2,9.28,3.17,9.58,2.92.1,5.89-4.44"/><path d="M285.75,75.74q12.42-15.08,18.58-23.59-2.55-10.77-6-22.2-1.3-3.76,1.59-3.76h2.75a2.9,2.9,0,0,1,2.9,2.42q2.76,9.52,4.61,17.23,4.52-6.59,11.39-18.35a2.84,2.84,0,0,1,2.76-1.3h3.51q2.76,0,.5,3.67a279.24,279.24,0,0,1-16.18,24.2q2.35,10.44,4.21,22.09.3,2.05-1.65,2.15l-3.06.3a1.79,1.79,0,0,1-1.76-.4,7.69,7.69,0,0,1-.94-2.77q-1-7-2.69-14.61l-9.42,11.73-2.63,3.27-.52.64-.46.57a1.74,1.74,0,0,1-.62.54l-.67.31a2.91,2.91,0,0,1-1.64.4H287.4a1.93,1.93,0,0,1-1.9-.88,1.39,1.39,0,0,1,.25-1.68"/><path class="cls-1" d="M351.27,5.51,338.66,7.22a.24.24,0,0,0-.21.24l-.06,8.83a3,3,0,0,0-.68-.08,3,3,0,0,0-2.94,2.92,2.94,2.94,0,0,0,2.92,3h0a3,3,0,0,0,2.94-2.92l.06-8.19,8.53-1.08,0,4.66a3.09,3.09,0,0,0-.68-.08,2.94,2.94,0,1,0,2.94,3l.08-11.7a.24.24,0,0,0-.27-.24"/><path class="cls-2" d="M367.52.48a.24.24,0,0,0-.19-.06l-8.52,1.16a.24.24,0,0,0-.21.23l0,5.87a2.17,2.17,0,0,0-.38,0,2.06,2.06,0,0,0,0,4.13h0a2.07,2.07,0,0,0,2.06-2.05l0-5.46,5.6-.71,0,3a2.16,2.16,0,0,0-.38,0,2.06,2.06,0,1,0,2.06,2.08l.05-7.9a.24.24,0,0,0-.08-.18m-9.34,11.06Z"/></svg>