<?xml version="1.0" encoding="UTF-8" standalone="no"?>
<svg
   enable-background="new 0 0 210 630"
   viewBox="0 0 210 700"
   version="1.1"
   id="svg55"
   sodipodi:docname="bt-bonus.svg"
   width="210"
   height="700"
   inkscape:version="1.3 (0e150ed6c4, 2023-07-21)"
   xmlns:inkscape="http://www.inkscape.org/namespaces/inkscape"
   xmlns:sodipodi="http://sodipodi.sourceforge.net/DTD/sodipodi-0.dtd"
   xmlns="http://www.w3.org/2000/svg"
   xmlns:svg="http://www.w3.org/2000/svg">
  <defs
     id="defs55" />
  <sodipodi:namedview
     id="namedview55"
     pagecolor="#505050"
     bordercolor="#eeeeee"
     borderopacity="1"
     inkscape:showpageshadow="0"
     inkscape:pageopacity="0"
     inkscape:pagecheckerboard="0"
     inkscape:deskcolor="#d1d1d1"
     showgrid="false"
     showguides="true"
     inkscape:zoom="2.8284271"
     inkscape:cx="62.402173"
     inkscape:cy="649.3008"
     inkscape:window-width="1892"
     inkscape:window-height="1003"
     inkscape:window-x="0"
     inkscape:window-y="0"
     inkscape:window-maximized="1"
     inkscape:current-layer="svg55">
    <sodipodi:guide
       position="65.756787,69.976147"
       orientation="0,-1"
       id="guide65"
       inkscape:locked="false" />
    <sodipodi:guide
       position="68.23028,139.89271"
       orientation="0,-1"
       id="guide66"
       inkscape:locked="false" />
    <sodipodi:guide
       position="74.246212,127.59706"
       orientation="0,-1"
       id="guide67"
       inkscape:locked="false" />
    <sodipodi:guide
       position="-15.654405,0.17697349"
       orientation="0,-1"
       id="guide68"
       inkscape:locked="false" />
    <sodipodi:guide
       position="82.37794,59.714812"
       orientation="0,-1"
       id="guide69"
       inkscape:locked="false" />
    <sodipodi:guide
       position="-12.988944,10.251864"
       orientation="0,-1"
       id="guide70"
       inkscape:locked="false" />
  </sodipodi:namedview>
  <g
     fill="#ffffff"
     id="g55">
    <circle
       cx="19.799999"
       cy="460.70001"
       r="2.2"
       id="circle1" />
    <circle
       cx="26"
       cy="433.89999"
       r="2.2"
       id="circle2" />
    <path
       d="m 51.6,455.8 c -0.6,-0.6 -1.2,-1.1 -1.9,-1.5 L 25.6,439 l 6.5,12.3 -17.9,-12 19.5,30.7 c 0.5,0.7 1,1.4 1.6,2.1 4.5,4.5 11.7,4.5 16.2,0 4.6,-4.5 4.6,-11.8 0.1,-16.3 z m -3.1,13.1 c -2.8,2.8 -7.2,2.8 -10,0 -2.8,-2.8 -2.8,-7.2 0,-10 2.8,-2.8 7.2,-2.8 10,0 2.7,2.8 2.7,7.3 0,10 z"
       id="path2" />
    <path
       d="m 48.5,245.8 c -1.8,-1.8 -1.4,-4.2 -1,-5.4 0.1,-0.3 -0.2,-0.6 -0.5,-0.5 -1.2,0.3 -3.6,0.7 -4.9,-1 -1.6,-2.2 -0.6,-4.2 0.2,-5.2 0.2,-0.3 0,-0.6 -0.3,-0.7 -1,-0.2 -2.9,-0.7 -3.9,-1.9 -1.3,-1.7 -0.8,-3.5 -0.3,-4.8 -2,-0.3 -4.1,-0.3 -6.2,0.1 -8.3,1.5 -14.8,8.6 -15.5,17 -0.9,11.2 7.9,20.6 18.9,20.6 10,0 18.2,-7.7 18.9,-17.5 -1.3,0.3 -3.9,0.7 -5.4,-0.7 z M 35,251.5 c -3.6,0 -6.5,-2.9 -6.5,-6.5 0,-3.6 2.9,-6.5 6.5,-6.5 3.6,0 6.5,2.9 6.5,6.5 0,3.6 -2.9,6.5 -6.5,6.5 z"
       id="path3" />
    <path
       d="m 45.9,220.2 c -1.2,-0.3 -2,-0.3 -2.3,0.2 -0.1,0.3 -0.2,4.3 -0.2,4.6 0,0.3 1.1,1 1.4,1.1 0.3,0.1 0.6,0.1 0.8,-0.1 0.1,-0.3 1.9,-4 2.1,-4.4 0.1,-0.3 -0.8,-1.2 -1.8,-1.4 z"
       id="path4" />
    <path
       d="m 51.2,226.6 c -1.6,0.4 -2.8,1.1 -3.3,2.7 -0.4,1.3 -0.2,3.9 1.1,4.3 0.9,0.3 3,-0.2 3.3,-0.8 0.2,-0.5 1,-6.7 -1.1,-6.2 z"
       id="path5" />
    <path
       d="m 193.7,176.9 c 0,0 2,-9.4 0.3,-13.6 -1.8,-4.2 -7.6,-8.8 -7.6,-8.8 l -6.2,2.2 2.6,4.7 -26.7,4.6 c -0.4,0.1 -0.7,0.5 -0.6,0.9 l 0.4,2.5 c 0.1,0.4 0.5,0.7 0.9,0.6 l 15.9,-2.7 -10.7,24.3 c -0.4,0.9 0,1.9 0.9,2.3 0.9,0.4 1.9,0 2.3,-0.9 l 9.8,-22.3 9.9,22.5 c 0.4,0.9 1.4,1.3 2.3,0.9 0.9,-0.4 1.3,-1.4 0.9,-2.3 l -11.1,-25.3 8.5,-1.4 z"
       id="path6" />
    <path
       d="m 187.1,311.7 c 1.9,0 3.9,-0.1 4.6,-0.1 2.4,0 2.5,-4 0.1,-4 H 166 l -11.6,21.7 h 42.3 z"
       id="path7" />
    <path
       d="m 178.5,294.4 c -0.2,-0.3 -1.4,0.4 -2.2,0.3 -0.4,0 -1.4,-0.3 -1.8,-0.4 -0.5,-0.1 -1.9,-0.3 -2.3,0.1 -0.1,0.1 -1.6,3.1 -2.3,4.7 -2.5,0 -7.3,0 -8.1,0 -2.4,0 -2.5,4 -0.1,4 h 20.5 z"
       id="path8" />
    <circle
       cx="35"
       cy="315"
       r="2.2"
       id="circle8" />
    <path
       d="m 49.4,321.3 c -1.9,3.6 -6,7 -6.1,7.2 -0.4,0.4 -1,0.5 -1.5,0.5 -0.7,0 -1.3,-0.3 -1.8,-0.8 -0.8,-1 -0.7,-2.4 0.3,-3.2 0,0 3.6,-3 5,-5.8 1,-1.8 3.6,-9.9 5.6,-16.6 -3.7,-4.7 -9.5,-7.8 -16,-7.8 -11.2,0 -20.3,9.1 -20.3,20.3 0,11.2 9.1,20.3 20.3,20.3 11.2,0 20.3,-9.1 20.3,-20.3 0,-2.4 -0.4,-4.7 -1.2,-6.9 -1.6,5.1 -3.6,11.2 -4.6,13.1 z M 27.2,315 c 0,-4.3 3.5,-7.8 7.8,-7.8 4.3,0 7.8,3.5 7.8,7.8 0,4.3 -3.5,7.8 -7.8,7.8 -4.3,0 -7.8,-3.5 -7.8,-7.8 z"
       id="path9" />
    <path
       d="m 128.8,307.6 c -0.7,-1.8 -11.7,0.7 -24.5,5.7 -12.8,5 -22.6,10.6 -21.8,12.4 0.4,0.9 3.2,0.7 7.4,-0.2 4.8,6.8 13.7,9.8 21.8,6.6 8.1,-3.2 12.6,-11.4 11.5,-19.6 3.8,-2.2 5.9,-4 5.6,-4.9 z"
       id="path10" />
    <path
       d="m 102.6,309.1 c 6.1,-2.4 12,-4.3 16.7,-5.5 -4.9,-6.2 -13.4,-8.8 -21.1,-5.8 -7.7,3 -12.2,10.7 -11.6,18.6 4.3,-2.3 9.9,-4.9 16,-7.3 z"
       id="path11" />
    <path
       d="m 187,237 h -12 -12 l -3,9.5 h 15 15 z"
       id="path12" />
    <path
       d="m 193,251 h -18 -18 l -3,10 h 21 21 z"
       id="path13" />
    <path
       d="m 167,223.5 v 9 h 4.7 V 228 h 6.5 v 4.5 h 4.8 v -9 z"
       id="path14" />
    <path
       d="m 31.6,171.6 2.6,-11.9 c 0.2,-0.9 1.4,-0.9 1.6,0 l 2.6,11.9 11.8,2.6 c 0.9,0.2 0.9,1.4 0,1.6 l -11.8,2.6 -2.6,11.9 c -0.2,0.9 -1.4,0.9 -1.6,0 l -2.6,-11.9 -11.8,-2.6 c -0.9,-0.2 -0.9,-1.4 0,-1.6 z"
       id="path15" />
    <circle
       cx="43.700001"
       cy="165.89999"
       r="2.2"
       id="circle15" />
    <circle
       cx="50.400002"
       cy="159.89999"
       r="2.2"
       id="circle16" />
    <circle
       cx="19.1"
       cy="189.39999"
       r="2.2"
       id="circle17" />
    <circle
       cx="25.799999"
       cy="183.39999"
       r="2.2"
       id="circle18" />
    <circle
       cx="43.700001"
       cy="183.39999"
       r="2.2"
       id="circle19" />
    <circle
       cx="50.400002"
       cy="189.39999"
       r="2.2"
       id="circle20" />
    <circle
       cx="25.799999"
       cy="165.89999"
       r="2.2"
       id="circle21" />
    <circle
       cx="19.1"
       cy="159.89999"
       r="2.2"
       id="circle22" />
    <path
       d="m 86,172.5 19,23 19,-23 z"
       id="path22" />
    <path
       d="m 98.2,158 6.8,10 6.7,-10 z"
       id="path23" />
    <path
       d="m 124,168 -6.8,-10 -6.7,10 z"
       id="path24" />
    <path
       d="M 99.5,168 92.7,158 86,168 Z"
       id="path25" />
    <path
       d="m 174.9,433.9 -20.8,35.3 h 41.8 z m 0.1,23.9 c -2.3,0 -4.2,-1.9 -4.2,-4.2 0,-2.3 1.9,-4.2 4.2,-4.2 2.3,0 4.2,1.9 4.2,4.2 0,2.3 -1.9,4.2 -4.2,4.2 z"
       id="path26" />
    <path
       d="m 89.2,250.2 c -2.4,2.4 -4.5,8.4 -4.5,8.4 0,0 6,-2.1 8.4,-4.5 z"
       id="path27" />
    <path
       d="m 96,257 c -2.4,2.4 -4.5,8.4 -4.5,8.4 0,0 6,-2.1 8.4,-4.5 z"
       id="path28" />
    <path
       d="m 116.1,247.4 6.7,-11.1 c 1.6,-2.7 1.4,-8.1 0.3,-9.2 -1.1,-1.1 -6.5,-1.4 -9.2,0.3 l -11.1,6.7 -12.2,-0.2 -5.7,5.7 12.9,12.9 12.9,12.9 5.7,-5.7 z m -10.8,-10.8 11.1,-6.7 3.9,3.9 -6.7,11 z"
       id="path29" />
    <path
       d="m 122.1,378.6 c -2.6,-4.2 -8,-8.1 -8,-8.1 0,0 0.6,-2.2 0.4,-2.9 -0.1,-0.4 -1.1,-0.9 -1.1,-0.9 0,0 -1.1,-0.5 -1.4,-0.3 -0.6,0.3 -2,2.1 -2,2.1 0,0 -6.4,-1.9 -11.3,-1.4 -4.9,0.5 -10.8,3 -10.8,3 0,0 -1.6,3.2 -1.8,3.6 1.3,1.5 5.6,4.3 6.2,4.7 0.8,-1.1 2.1,-2.7 2.5,-3 0.7,-0.6 1.3,-0.6 2,-0.2 0.9,0.6 -0.1,2.8 -1.4,5.1 1.9,1.3 5.8,3.2 7,3.9 1.1,-2.2 2.8,-4.6 4.3,-3.9 1.5,0.7 0.6,3.5 -0.5,5.8 1.3,0.6 5.2,2.5 7.3,3.2 1,-2.4 2.2,-4.6 3.2,-4.2 0.8,0.3 1.1,0.8 1.1,1.7 0,0.6 -0.5,2.6 -0.9,3.8 0.8,0.3 5.6,2 7.6,2.1 0.2,-0.4 1.8,-3.6 1.8,-3.6 0,0 -1.6,-6.3 -4.2,-10.5 z"
       id="path30" />
    <path
       d="m 92.4,404.1 7.3,-14.8 4,2 -7.3,14.8 z"
       id="path31" />
    <path
       d="m 187.8,376.9 -6.1,4.1 -6.1,-4.1 -6.1,4.1 v -9.2 l -6.1,-8.2 -6.1,8.2 v 30.7 h 13.8 v -6.9 c 0,-2.5 2.1,-4.6 4.6,-4.6 2.5,0 4.6,2.1 4.6,4.6 v 6.9 h 13.8 V 381 Z"
       id="path32" />
    <path
       d="m 58.3,396.8 c -1.4,-1.9 -3.8,-4.9 -8,-8.5 -4.6,-3.8 -8.1,-5.2 -8.1,-5.2 0,0 2,-3.7 2.8,-5.1 0.8,-1.4 1.9,-3.9 1.4,-4.5 -0.5,-0.5 -3.1,0.7 -4.5,1.4 -1.4,0.8 -5.1,2.8 -5.1,2.8 0,0 -1.4,-3.5 -5.2,-8.1 -3.5,-4.3 -6.5,-6.7 -8.5,-8 -1,-0.7 -1.6,1 -2.1,3.9 -1,5.7 -1.5,12.7 4.6,23 0,0 -6.5,4.6 -8.2,5.6 -1,0.6 -0.8,1.4 -0.4,1.9 0.4,0.4 3,3.2 3.4,3.5 0.3,0.4 3.1,3 3.5,3.4 0.4,0.4 1.2,0.6 1.9,-0.4 1.1,-1.6 5.6,-8.2 5.6,-8.2 10.2,6.1 17.3,5.6 23,4.6 2.9,-0.4 4.6,-1 3.9,-2.1 z"
       id="path33" />
    <path
       d="m 108.3,449.9 c -9,-3.6 -17.1,-1.7 -26,2.5 3.6,9.2 8.1,16.1 17.2,19.7 9,3.6 17.1,1.7 26,-2.5 -3.6,-9.1 -8.2,-16.1 -17.2,-19.7 z m 2.1,13.7 c -1.4,3.6 -5.5,5.4 -9.2,3.9 -3.6,-1.4 -5.4,-5.5 -3.9,-9.2 1.4,-3.6 5.5,-5.4 9.2,-3.9 3.6,1.5 5.4,5.6 3.9,9.2 z"
       id="path34" />
    <path
       d="m 126,453.3 c 0.2,0.5 0.2,0.9 -0.2,1.2 -0.6,0.4 -0.5,0.3 -1,0.5 -0.4,0.2 -0.7,0.1 -1.1,-0.5 -4.3,-6.2 -7.5,-9.2 -13.9,-11.7 -6.5,-2.5 -11.6,-2.2 -17.2,-1.4 -3.2,0.5 -3.4,-0.4 -2.6,-1.3 0.8,-0.9 2.7,-1.1 2.5,-2.1 -0.2,-1 -2.9,0.6 -3.9,-0.1 -1.2,-0.8 1.5,-2.7 5.6,-3.6 9.6,-1.9 24,1.8 31.8,19 z"
       id="path35" />
    <path
       d="m 155.8,113.6 h 38.5 c -6.9,-3.3 -11.8,-8.5 -11.8,-9.4 h 7.3 c -5.6,-3.1 -10.3,-8.1 -10.3,-9 h 7.2 c -7.6,-4.2 -11.1,-12 -11.5,-12.3 -0.5,0.3 -4,8.1 -11.5,12.3 h 7.2 c 0,1 -4.7,5.9 -10.3,9 h 7.3 c -0.3,1 -5.2,6.1 -12.1,9.4 z"
       id="path36" />
    <path
       d="m 172.3,118.1 h 5.4 v 6.5 h -5.4 z"
       id="path37" />
    <path
       d="m 119.7,112 c -3.6,3.1 -7.8,5.1 -11.6,5.9 v -20 h 10.7 c 1,0 1.8,-0.8 1.8,-1.8 0,-1 -0.8,-1.8 -1.8,-1.8 h -10.3 c 1.7,-1.1 2.8,-3 2.8,-5.2 0,-3.5 -2.8,-6.2 -6.2,-6.2 -3.5,0 -6.2,2.8 -6.2,6.2 0,2.2 1.1,4.1 2.8,5.2 H 91.2 c -1,0 -1.8,0.8 -1.8,1.8 0,1 0.8,1.8 1.8,1.8 h 10.7 v 19.9 c -3.8,-0.8 -8,-2.8 -11.6,-5.9 l -5.3,1.5 c 5.3,7.1 14.6,11.7 20,12 5.4,-0.3 14.7,-4.9 20,-12 z M 105,86.4 c 1.5,0 2.8,1.2 2.8,2.7 0,1.5 -1.2,2.8 -2.7,2.8 -1.5,0 -2.8,-1.2 -2.8,-2.7 -0.1,-1.5 1.2,-2.8 2.7,-2.8 z"
       id="path38" />
    <path
       d="m 32.9,112.2 c -3.2,-3.7 -3.2,-8.4 -1.5,-11.1 2.6,-4 4.4,-6.1 4.4,-6.1 0,0 4.3,2.5 4.4,8.5 0.1,2.3 -0.3,5.8 -3.2,8.7 3.4,-0.6 6.7,-2.6 8.5,-5.4 2.7,-4.1 3,-9.8 0.5,-14.1 -4.3,-7.5 -13.2,-11.3 -13.2,-11.3 0,0 0.6,5.6 -7.7,13.2 -3.7,3.4 -3.4,9.3 -0.1,12.7 2.2,2.2 4.8,4 7.9,4.9 z"
       id="path39" />
    <path
       d="M 45.1,116.8 H 24.9 c -1.2,0 -2.2,0.9 -2.2,2.1 v 6.5 h 24.6 v -6.5 c 0,-1.2 -1,-2.1 -2.2,-2.1 z"
       id="path40" />
    <path
       d="m 47.2,29.2 h -2.8 v -5.4 c 0,-4.3 -4.1,-9 -9.5,-9.1 -5.4,0 -9.5,4.8 -9.5,9.1 v 5.4 h -2.6 c -1.3,0 -2.3,1 -2.3,2.3 v 17.3 c 0,1.3 1,2.3 2.3,2.3 h 24.4 c 1.3,0 2.3,-1 2.3,-2.3 V 31.6 c 0,-1.3 -1,-2.4 -2.3,-2.4 z M 28.9,23.9 c 0,-2.3 2.3,-5.6 6,-5.6 3.7,0 6,3.3 6,5.6 v 5.4 h -12 z"
       id="path41" />
    <path
       d="m 57,518.4 c 0,0 -5.1,0.9 -10.1,4.4 0,0.7 0.1,1.4 0.1,2.2 0,8.6 -3.5,15 -6.1,18.6 3.7,-0.5 8.5,-2.1 12.3,-7.1 5.6,-7.5 3.8,-18.1 3.8,-18.1 z"
       id="path42" />
    <path
       d="m 25.5,513 c -2.9,-2.8 -5.4,-3.9 -5.4,-3.9 0,0 -1,2.5 -1.3,6.3 1.5,0.6 3.3,1.4 5.1,2.5 0.4,-1.8 1,-3.4 1.6,-4.9 z"
       id="path43" />
    <path
       d="m 35,506.5 c 0,0 -7.4,6.8 -7.4,18.5 0,11.7 7.4,18.5 7.4,18.5 0,0 7.4,-6.8 7.4,-18.5 0,-11.7 -7.4,-18.5 -7.4,-18.5 z"
       id="path44" />
    <path
       d="m 51.2,515.4 c -0.3,-3.9 -1.3,-6.3 -1.3,-6.3 0,0 -2.4,1.1 -5.4,3.9 0.6,1.5 1.2,3.1 1.6,4.9 1.8,-1.1 3.5,-1.9 5.1,-2.5 z"
       id="path45" />
    <path
       d="m 13,518.4 c 0,0 5.1,0.9 10.1,4.4 0,0.7 -0.1,1.4 -0.1,2.2 0,8.6 3.5,15 6.1,18.6 -3.7,-0.5 -8.5,-2.1 -12.3,-7.1 C 11.2,529 13,518.4 13,518.4 Z"
       id="path46" />
    <path
       d="m 86,514.5 1,4 V 544 h 11.3 v -18.8 c 0,-3.7 3,-6.7 6.7,-6.7 3.7,0 6.7,3 6.7,6.7 V 544 H 123 v -25.5 l 1,-4 z"
       id="path47" />
    <path
       d="m 121,506 h -9.8 l -6.2,-4 -6.2,4 H 89 l -1,4 h 34 z"
       id="path48" />
    <path
       d="m 194,513.8 c -2.7,-2 -6.3,-2.6 -9.8,-2.8 0.3,-1.4 0.8,-3.5 1.3,-4.7 0.9,-2.4 -0.6,-1.9 -1.5,-0.8 -0.6,0.7 -2.2,3 -2.9,4.3 -0.6,1.1 -1.9,0.7 -1.7,-0.4 0.3,-2.1 1,-4.4 2.1,-7 0.7,-1.7 -0.7,-1.5 -1.4,-0.8 -1.7,1.8 -4.1,6.1 -4.7,7.3 -0.6,1.3 -2.1,0.7 -1.9,-0.4 0.4,-2.5 2.6,-7.8 2.9,-8.4 0.4,-0.9 -0.5,-1.6 -1.8,-0.4 -0.7,0.6 -3.6,4.1 -5.9,9.1 -3.7,-0.7 -7.5,-0.7 -11,1.5 -6.3,4.1 -6.3,13.3 -2,18 3.1,3.5 4.9,5 6.2,9.8 1.6,5.8 5.3,9.9 11.1,10.6 5.3,0.6 9.2,-3.3 11.6,-7.6 2.1,-3.7 4.6,-6 9.9,-9.8 5.9,-4.2 4.9,-13.5 -0.5,-17.5 z m -30.4,12.8 c -3.4,-0.4 -5.9,-3.5 -5.4,-6.9 0.4,-3.4 3.5,-5.9 6.9,-5.4 3.4,0.4 5.9,3.5 5.4,6.9 -0.3,3.4 -3.4,5.8 -6.9,5.4 z m 12.2,7 c -0.2,0.8 -1.2,1.5 -3.8,1 -2.5,-0.5 -2.7,-1.5 -2.4,-2.5 0.3,-1.1 3.1,-5.2 4.1,-5 1,0.2 2.4,5.1 2.1,6.5 z m 15.8,-9.9 c -0.4,3.5 -3.6,6.1 -7.2,5.6 -3.5,-0.4 -6.1,-3.6 -5.6,-7.2 0.4,-3.5 3.6,-6.1 7.2,-5.6 3.5,0.4 6.1,3.6 5.6,7.2 z"
       id="path49" />
    <path
       d="m 25,582.8 -0.2,-9 c 0,-0.7 -0.6,-1.2 -1.3,-1.3 -0.7,0 -1.3,0.6 -1.3,1.3 l -0.2,9 -5.2,5.2 v 24.5 H 30.3 V 588 Z"
       id="path50" />
    <path
       d="M 48.4,572.5 H 34.7 v 40 H 54.2 V 591 l -5.9,-5.9 z M 45,582.6 h -6.8 v -6.8 H 45 Z"
       id="path51" />
    <path
       d="m 130.9,591 c 0,0 -8.4,-2.1 -17.4,-0.6 -7.5,1.2 -15.2,2.5 -17.8,2.9 -3.7,-3.9 -10.6,-11.1 -11.2,-11.7 -0.9,-1 -2.1,-0.7 -1.8,0.6 l 4.1,16.5 c -1.2,0.3 -4.1,1.1 -5.4,3.5 2.3,1.5 5.3,1 6.5,0.7 l 0.9,3.6 8.1,-1 -1.7,6.9 c 0.1,0.4 0.4,0.7 0.6,0.7 l 10.9,-2.4 c 0.5,-0.1 0.8,-0.5 0.9,-0.9 l 2.9,-6.3 c 0,0 4.9,-1.1 10.4,-3.1 8.2,-2.9 10.8,-6.4 10.8,-6.4 z"
       id="path52" />
    <path
       d="m 104.9,581.6 c -4.1,0 -7.2,3.1 -7.9,7 l 15.4,-2.5 c -1.4,-2.6 -4.4,-4.5 -7.5,-4.5 z"
       id="path53" />
    <path
       d="M 174.4,573.7 152,607.3 h 34.7 z"
       id="path54" />
    <path
       d="m 181.3,579.4 10.2,27.9 h 7.5 z"
       id="path55" />
  </g>
  <g
     id="g56"
     transform="translate(-3.2281931,73.10988)">
    <path
       d="m 52.349188,581.86769 c 1.77,-3.71 1.13,-8.29 -1.95,-11.37 -3.07,-3.08 -7.65,-3.72 -11.37,-1.95 0.64,3.18 2.19,6.21 4.65,8.67 2.46,2.46 5.49,4.01 8.67,4.65 z"
       fill="#ffffff"
       id="path55-6" />
    <path
       d="m 49.829188,585.15769 c -3.42,-0.55 -6.7,-2.12 -9.33,-4.76 -2.63,-2.63 -4.21,-5.92 -4.76,-9.33 -3.37,3.93 -3.21,9.85 0.51,13.57 3.72,3.72 9.64,3.89 13.57,0.51 z"
       fill="#ffffff"
       id="path56" />
    <path
       d="m 53.869188,610.28769 c -1.5,-6.44 -7.38,-8.8 -12.2,-8.27 -3.58,0.39 -5.96,2.02 -8.27,3.6 -2.47,1.69 -4.8,3.28 -8.72,3.28 -1.8,0 -3.42,-0.98 -4.03,-2.45 -0.69,-1.66 0.03,-3.68 2.03,-5.68 l 0.06,-0.06 c 0.43,0.37 0.86,0.71 1.15,0.89 0.62,0.38 1.42,0.32 1.99,-0.13 l 12.63,-10.24 c -1.98,-0.7 -3.85,-1.82 -5.43,-3.4 -1.58,-1.58 -2.71,-3.45 -3.4,-5.43 l -10.24,12.63 c -0.45,0.57 -0.52,1.37 -0.13,1.99 0.18,0.29 0.52,0.72 0.89,1.15 l -0.06,0.06 c -3.05,3.05 -4.08,6.55 -2.81,9.6 1.16,2.79 4.11,4.67 7.35,4.67 5.04,0 8.08,-2.08 10.75,-3.91 2.12,-1.45 3.94,-2.7 6.63,-2.99 2.35,-0.26 7.14,0.56 8.3,5.51 0.19,0.83 0.93,1.39 1.75,1.39 0.14,0 0.27,-0.02 0.41,-0.05 0.97,-0.23 1.57,-1.19 1.34,-2.16 z"
       fill="#ffffff"
       id="path57" />
    <path
       d="m 185.39919,583.28769 v -8.81 c 0,-2.97 -4.04,-7.19 -9.44,-7.19 -5.4,0 -9.44,4.22 -9.44,7.19 v 8.81 h 18.87 z"
       fill="#ffffff"
       id="path58" />
    <path
       d="m 179.09919,608.04769 h -6.27 c -2.56,4.89 3.14,8.35 3.14,8.35 0,0 5.7,-3.46 3.14,-8.35 z"
       fill="#ffffff"
       id="path59" />
    <path
       d="m 190.10919,587.78769 h -28.29 c -4.14,2.03 -7.75,7.47 -9.54,12.01 h 9.85 l 3.01,3.75 h 21.66 l 3.01,-3.75 h 9.85 c -1.79,-4.54 -5.4,-9.98 -9.54,-12.01 z"
       fill="#ffffff"
       id="path60" />
    <path
       d="m 125.98919,570.84769 h -3.13 l -0.77,6.93 H 89.829188 l -0.77,-6.93 h -3.13 l -1.08,21.12 c -0.06,1.08 0.55,2.08 1.52,2.55 l 19.590002,9.97 19.59,-9.97 c 0.98,-0.46 1.58,-1.47 1.52,-2.55 z m -5.13,18.02 -14.9,7.08 -14.900002,-7.08 -0.6,-5.45 h 31.010002 l -0.6,5.45 z"
       fill="#ffffff"
       id="path61" />
    <path
       d="m 90.609188,601.86769 c 0.72,4.62 3.62,8.61 7.779999,10.74 l 7.410003,3.78 7.41,-3.78 c 4.17,-2.13 7.06,-6.12 7.78,-10.74 l -15.19,7.85 z"
       fill="#ffffff"
       id="path62" />
  </g>
</svg>
