<svg viewBox="0 0 210 700" xmlns="http://www.w3.org/2000/svg">
  <script xmlns="" />
  <path d="m47.19 29.24h-2.79v-5.39c0-4.27-4.06-9.04-9.49-9.05-5.43 0-9.49 4.79-9.49 9.05v5.39h-2.61c-1.27 0-2.31 1.04-2.31 2.31v17.33c0 1.27 1.04 2.31 2.31 2.31h24.38c1.27 0 2.31-1.04 2.31-2.31v-17.33c0-1.27-1.04-2.31-2.31-2.31zm-18.28-5.39c0-2.26 2.34-5.56 6-5.57 3.67 0 6.01 3.3 6.01 5.57v5.39h-12v-5.39z" fill="#fcfcfc" />
  <g fill="#fff">
    <circle cx="19.81" cy="460.65" r="2.25" />
    <circle cx="26.02" cy="433.89" r="2.25" />
    <path d="m51.58 455.81c-.59-.59-1.23-1.1-1.9-1.53s-24.11-15.33-24.11-15.33l6.54 12.33-17.93-12.01 19.52 30.69c.46.73 1 1.43 1.64 2.08 4.48 4.48 11.75 4.48 16.23 0s4.48-11.75 0-16.23zm-3.12 13.1c-2.76 2.76-7.22 2.76-9.98 0s-2.76-7.22 0-9.98 7.22-2.76 9.98 0 2.76 7.22 0 9.98z" />
    <path d="m48.5 245.75c-1.8-1.84-1.36-4.24-.98-5.44.1-.3-.18-.6-.49-.52-1.22.29-3.63.75-4.91-.98-1.6-2.16-.58-4.2.16-5.19.19-.25.05-.6-.26-.65-1.03-.18-2.88-.66-3.85-1.93-1.27-1.65-.75-3.49-.31-4.79-1.99-.3-4.08-.29-6.23.1-8.34 1.51-14.78 8.57-15.48 17.02-.94 11.21 7.88 20.6 18.89 20.6 9.99 0 18.17-7.73 18.9-17.53-1.38.38-3.97.81-5.43-.68zm-13.47 5.74c-3.58 0-6.49-2.91-6.49-6.49s2.91-6.49 6.49-6.49 6.49 2.91 6.49 6.49-2.91 6.49-6.49 6.49z" />
    <path d="m45.91 220.19c-1.17-.29-2.04-.28-2.29.23-.15.3-.24 4.31-.21 4.62s1.05.98 1.38 1.08.63.14.77-.13 1.93-3.98 2.1-4.35-.79-1.2-1.76-1.44z" />
    <path d="m51.21 226.62c-1.6.4-2.82 1.05-3.34 2.7-.42 1.34-.16 3.94 1.15 4.3.93.25 3.01-.24 3.27-.79s.98-6.72-1.08-6.21z" />
    <path d="m193.68 176.92s2.05-9.42.3-13.65c-1.75-4.22-7.57-8.83-7.57-8.83l-6.18 2.17 2.61 4.69-26.77 4.68c-.42.07-.7.47-.63.9l.45 2.55c.07.42.47.7.89.63l15.9-2.67-10.73 24.33c-.39.88.01 1.92.89 2.31s1.92-.01 2.31-.9l9.81-22.26 9.91 22.47c.39.88 1.42 1.29 2.31.9.88-.39 1.28-1.42.89-2.31l-11.14-25.26 8.51-1.43 8.24 11.67z" />
    <path d="m187.05 311.66c1.89-.04 3.9-.14 4.59-.14 2.39 0 2.47-3.98.08-3.98h-25.78l-11.56 21.73h42.25z" />
    <path d="m178.48 294.41c-.17-.26-1.36.4-2.24.3-.41-.05-1.37-.28-1.84-.42s-1.89-.29-2.31.08c-.14.12-1.55 3.06-2.27 4.69-2.55.02-7.28 0-8.06 0-2.39 0-2.47 3.98-.08 3.98h20.46l-3.67-8.63z" />
    <circle cx="35" cy="315" r="2.25" />
    <path d="m49.41 321.33c-1.91 3.57-5.95 7.03-6.12 7.17-.43.37-.96.55-1.49.55-.65 0-1.3-.27-1.75-.81-.82-.97-.71-2.42.26-3.25.04-.03 3.55-3.05 5.05-5.84.99-1.84 3.58-9.91 5.63-16.61-3.71-4.75-9.48-7.8-15.97-7.8-11.19 0-20.26 9.07-20.26 20.26s9.07 20.26 20.26 20.26 20.26-9.07 20.26-20.26c0-2.41-.42-4.72-1.2-6.87-1.64 5.21-3.64 11.29-4.66 13.2zm-22.24-6.33c0-4.32 3.5-7.83 7.83-7.83s7.83 3.51 7.83 7.83-3.51 7.83-7.83 7.83-7.83-3.5-7.83-7.83z" />
    <path d="m128.79 307.62c-.72-1.84-11.67.73-24.46 5.74s-22.57 10.57-21.84 12.41c.35.9 3.16.74 7.43-.24 0 0-.01.01-.02.02 4.77 6.81 13.72 9.76 21.8 6.59s12.64-11.41 11.51-19.65c0 0-.02 0-.03 0 3.8-2.18 5.97-3.98 5.62-4.88z" />
    <path d="m102.65 309.08c6.1-2.39 12-4.32 16.73-5.47-4.89-6.2-13.4-8.78-21.13-5.75s-12.21 10.71-11.59 18.58c4.25-2.36 9.89-4.96 15.99-7.35z" />
    <path d="m187 237h-12-12l-3 9.5h15 15z" />
    <path d="m193 251h-18-18l-3 10h21 21z" />
    <path d="m167 223.5v9h4.75v-4.5h6.5v4.5h4.75v-9z" />
    <path d="m31.62 171.62 2.56-11.86c.19-.88 1.44-.88 1.63 0l2.56 11.86 11.84 2.56c.88.19.88 1.44 0 1.63l-11.84 2.56-2.56 11.86c-.19.88-1.44.88-1.63 0l-2.56-11.86-11.84-2.56c-.88-.19-.88-1.44 0-1.63z" />
    <circle cx="43.65" cy="165.88" r="2.25" />
    <circle cx="50.4" cy="159.9" r="2.25" />
    <circle cx="19.08" cy="189.38" r="2.25" />
    <circle cx="25.83" cy="183.4" r="2.25" />
    <circle cx="43.65" cy="183.4" r="2.25" />
    <circle cx="50.4" cy="189.38" r="2.25" />
    <circle cx="25.83" cy="165.88" r="2.25" />
    <circle cx="19.08" cy="159.9" r="2.25" />
    <path d="m86 172.5 19 23 19-23z" />
    <path d="m98.25 158 6.75 10 6.75-10z" />
    <path d="m124 168-6.75-10-6.75 10z" />
    <path d="m99.5 168-6.75-10-6.75 10z" />
    <path d="m174.92 433.89-20.84 35.33h41.83l-21-35.33zm.08 23.88c-2.33 0-4.22-1.89-4.22-4.22s1.89-4.22 4.22-4.22 4.22 1.89 4.22 4.22-1.89 4.22-4.22 4.22z" />
    <path d="m89.24 250.25c-2.4 2.4-4.5 8.4-4.5 8.4s6-2.1 8.4-4.5z" />
    <path d="m95.97 256.98c-2.4 2.4-4.5 8.4-4.5 8.4s6-2.1 8.4-4.5z" />
    <path d="m116.11 247.37 6.67-11.07c1.63-2.7 1.38-8.12.26-9.23s-6.52-1.36-9.23.26l-11.07 6.67-12.18-.23-5.71 5.71 12.89 12.89 12.89 12.89 5.71-5.71zm-10.82-10.82 11.07-6.67 3.87 3.87-6.69 11.05z" />
    <path d="m122.1 378.64c-2.59-4.15-7.97-8.13-7.97-8.13s.59-2.22.44-2.88c-.09-.36-1.13-.93-1.13-.93s-1.08-.49-1.42-.34c-.63.28-2.03 2.09-2.03 2.09s-6.42-1.88-11.29-1.42c-4.88.45-10.79 3.01-10.79 3.01s-1.59 3.22-1.79 3.61c1.28 1.53 5.55 4.32 6.24 4.74.78-1.1 2.09-2.66 2.52-3.02.72-.6 1.31-.65 2-.2.9.59-.13 2.8-1.44 5.11 1.94 1.27 5.75 3.25 7.03 3.89 1.1-2.22 2.78-4.64 4.26-3.91s.56 3.54-.53 5.76c1.28.63 5.17 2.46 7.35 3.24 1.05-2.44 2.19-4.6 3.19-4.24.78.28 1.1.78 1.05 1.71-.03.56-.47 2.55-.88 3.84.76.3 5.56 2.01 7.55 2.1.2-.4 1.79-3.61 1.79-3.61s-1.55-6.26-4.14-10.41z" />
    <path d="m89.81 395.46h16.5v4.5h-16.5z" transform="matrix(.44416612 -.89594445 .89594445 .44416612 -301.83 308.94)" />
    <path d="m187.78 376.87-6.14 4.09-6.14-4.09-6.14 4.09v-9.21l-6.14-8.19-6.14 8.19v30.7h13.81v-6.9c0-2.54 2.06-4.6 4.6-4.6s4.6 2.06 4.6 4.6v6.9h13.81v-21.49l-6.14-4.09z" />
    <path d="m58.32 396.84c-1.36-1.94-3.77-4.93-8.05-8.46-4.58-3.78-8.07-5.17-8.07-5.17s2.01-3.72 2.76-5.12c.76-1.4 1.93-3.95 1.42-4.46s-3.05.66-4.46 1.42c-1.4.75-5.12 2.76-5.12 2.76s-1.39-3.49-5.17-8.07c-3.53-4.28-6.52-6.69-8.47-8.05-1.01-.71-1.63 1.03-2.12 3.95-.95 5.65-1.51 12.75 4.61 22.96 0 0-6.55 4.59-8.19 5.64-1 .64-.81 1.43-.44 1.85.38.43 3.03 3.18 3.39 3.52.33.37 3.09 3.02 3.52 3.39.42.37 1.21.56 1.85-.44 1.05-1.65 5.64-8.19 5.64-8.19 10.21 6.11 17.31 5.56 22.96 4.61 2.91-.49 4.65-1.11 3.95-2.12z" />
    <path d="m108.29 449.94c-9.04-3.6-17.12-1.7-26.01 2.5 3.57 9.16 8.13 16.09 17.18 19.69 9.04 3.6 17.12 1.7 26.01-2.5-3.57-9.16-8.14-16.09-17.18-19.69zm2.14 13.71c-1.44 3.62-5.54 5.39-9.16 3.94-3.62-1.44-5.39-5.54-3.94-9.16 1.44-3.62 5.54-5.39 9.16-3.94 3.62 1.44 5.39 5.54 3.94 9.16z" />
    <path d="m126 453.26c.24.53.22.92-.19 1.16-.63.37-.54.31-.97.55-.35.2-.66.09-1.05-.49-4.28-6.24-7.45-9.17-13.95-11.7-6.46-2.51-11.59-2.25-17.21-1.37-3.23.51-3.44-.35-2.62-1.29s2.71-1.09 2.5-2.05c-.22-1.01-2.94.6-3.94-.1-1.18-.83 1.5-2.7 5.61-3.57 9.65-2.04 24.06 1.68 31.82 18.85z" />
  </g>
  <path d="m155.77 113.6h38.46c-6.92-3.31-11.83-8.45-11.83-9.37h7.28c-5.61-3.12-10.31-8.08-10.31-9.05h7.17c-7.57-4.18-11.08-11.98-11.53-12.25-.45.27-3.96 8.07-11.53 12.25h7.17c0 .96-4.7 5.93-10.31 9.05h7.28c0 .92-4.92 6.06-11.83 9.37z" fill="#fcfcfc" />
  <path d="m172.28 118.1h5.44v6.46h-5.44z" fill="#fcfcfc" />
  <path d="m119.71 111.97c-3.61 3.07-7.83 5.1-11.61 5.85v-19.95h10.71c.97 0 1.75-.78 1.75-1.75s-.78-1.75-1.75-1.75h-10.32c1.67-1.12 2.76-3.03 2.76-5.19 0-3.45-2.8-6.25-6.25-6.25s-6.25 2.8-6.25 6.25c0 2.16 1.1 4.06 2.76 5.19h-10.32c-.97 0-1.75.78-1.75 1.75s.78 1.75 1.75 1.75h10.71v19.95c-3.78-.76-8-2.78-11.61-5.85l-5.32 1.4c5.32 7.08 14.58 11.68 20.03 12 5.44-.33 14.7-4.93 20.03-12zm-14.72-25.53c1.52 0 2.75 1.22 2.76 2.74 0 1.52-1.23 2.75-2.74 2.76-1.52 0-2.75-1.22-2.76-2.74 0-1.52 1.22-2.75 2.74-2.76z" fill="#fff" />
  <path d="m32.92 112.22c-3.19-3.74-3.2-8.43-1.45-11.1 2.59-3.96 4.38-6.05 4.38-6.05s4.28 2.52 4.43 8.48c.06 2.28-.3 5.78-3.2 8.67 3.36-.6 6.69-2.55 8.53-5.39 2.66-4.11 2.98-9.81.48-14.12-4.33-7.47-13.17-11.29-13.17-11.29s.61 5.59-7.67 13.22c-3.73 3.43-3.36 9.32-.08 12.72 2.02 2.1 4.62 3.91 7.76 4.87z" fill="#fcfcfc" />
  <path d="m45.09 116.81h-20.18c-1.21 0-2.19.93-2.19 2.07v6.49h24.56v-6.49c0-1.15-.98-2.07-2.19-2.07z" fill="#fcfcfc" />
  <path d="m56.95 518.37s-5.09.87-10.15 4.4c.05.72.09 1.45.09 2.2 0 8.65-3.47 15.01-6.07 18.57 3.68-.51 8.5-2.15 12.26-7.09 5.66-7.44 3.87-18.08 3.87-18.08z" fill="#fff" />
  <path d="m25.48 513.01c-2.95-2.79-5.39-3.91-5.39-3.91s-.95 2.45-1.25 6.31c1.52.59 3.27 1.39 5.08 2.47.41-1.77.95-3.4 1.56-4.87z" fill="#fff" />
  <path d="m35 506.46s-7.39 6.82-7.39 18.5 7.39 18.5 7.39 18.5 7.39-6.82 7.39-18.5-7.39-18.5-7.39-18.5z" fill="#fff" />
  <path d="m51.16 515.42c-.3-3.86-1.25-6.31-1.25-6.31s-2.44 1.12-5.39 3.9c.61 1.48 1.15 3.1 1.56 4.87 1.81-1.08 3.55-1.88 5.08-2.47z" fill="#fff" />
  <path d="m13.05 518.37s5.09.87 10.15 4.4c-.05.72-.09 1.45-.09 2.2 0 8.65 3.47 15.01 6.07 18.57-3.68-.51-8.5-2.15-12.26-7.09-5.66-7.44-3.87-18.08-3.87-18.08z" fill="#fff" />
  <path d="m86 514.5 1 4v25.5h11.26v-18.75c0-3.72 3.02-6.74 6.74-6.74s6.74 3.02 6.74 6.74v18.75h11.26v-25.5l1-4z" fill="#fff" />
  <path d="m121 506h-9.82l-6.18-4-6.18 4h-9.82l-1 4h34z" fill="#fff" />
  <path d="m193.97 513.77c-2.74-2.04-6.34-2.55-9.82-2.84.3-1.43.85-3.46 1.31-4.65.94-2.43-.61-1.91-1.54-.83-.6.71-2.21 3.01-2.91 4.32-.57 1.06-1.88.69-1.74-.35.28-2.05 1.02-4.43 2.12-6.98.72-1.66-.71-1.53-1.43-.77-1.67 1.77-4.08 6.08-4.68 7.28-.65 1.29-2.1.72-1.91-.4.42-2.55 2.62-7.76 2.87-8.37.38-.93-.51-1.64-1.78-.42-.66.64-3.61 4.08-5.93 9.1-3.74-.65-7.51-.75-11.02 1.54-6.26 4.09-6.28 13.27-2 18 3.14 3.47 4.88 4.96 6.19 9.84 1.55 5.8 5.26 9.94 11.12 10.6 5.31.59 9.18-3.3 11.57-7.58 2.06-3.69 4.63-6.02 9.94-9.78 6.12-4.33 5.07-13.65-.35-17.69zm-30.33 12.83c-3.42-.41-5.86-3.51-5.45-6.93s3.51-5.86 6.93-5.45 5.86 3.51 5.45 6.93-3.51 5.86-6.93 5.45zm12.16 6.98c-.17.85-1.24 1.53-3.81 1.02-2.5-.5-2.68-1.49-2.44-2.49.26-1.1 3.08-5.22 4.12-5.02 1.09.21 2.4 5.14 2.14 6.5zm15.83-9.89c-.42 3.54-3.64 6.07-7.18 5.65s-6.07-3.64-5.65-7.18 3.64-6.07 7.18-5.65 6.07 3.64 5.65 7.18z" fill="#fff" />
  <path d="m24.51 582.76-.24-9.01c-.02-.69-.58-1.25-1.29-1.27-.7.02-1.27.58-1.29 1.27l-.24 9.01-5.22 5.22v24.54h13.5v-24.54z" fill="#fff" />
  <path d="m47.91 572.48h-13.68s0 40.04 0 40.04h19.54s0-21.52 0-21.52l-5.86-5.86s0-12.66 0-12.66zm-3.42 10.13h-6.84v-6.84h6.84z" fill="#fff" />
  <path d="m130.46 591.04s-8.45-2.14-17.42-.64c-7.45 1.25-15.17 2.5-17.79 2.93-3.69-3.92-10.63-11.11-11.2-11.75-.87-.96-2.06-.69-1.8.56l4.05 16.5c-1.22.26-4.09 1.1-5.44 3.49 2.3 1.54 5.28 1.02 6.47.72l.88 3.57 8.14-.98-1.73 6.87c.13.44.38.71.57.66l10.94-2.38c.46-.1.81-.47.88-.93l2.87-6.35s4.89-1.12 10.45-3.05c8.21-2.85 10.81-6.39 10.81-6.39l-.68-2.84z" fill="#fff" />
  <path d="m104.44 581.58c-4.07 0-7.21 3.12-7.92 6.98l15.41-2.53c-1.42-2.54-4.37-4.45-7.48-4.45z" fill="#fff" />
  <path d="m173.91 573.73-22.42 33.54h34.69z" fill="#fff" />
  <path d="m180.85 579.38 10.14 27.89h7.52z" fill="#fff" />
  <path d="m51.39 655.73c1.77-3.71 1.13-8.29-1.95-11.37-3.07-3.08-7.65-3.72-11.37-1.95.64 3.18 2.19 6.21 4.65 8.67s5.49 4.01 8.67 4.65z" fill="#fff" />
  <path d="m48.87 659.02c-3.42-.55-6.7-2.12-9.33-4.76-2.63-2.63-4.21-5.92-4.76-9.33-3.37 3.93-3.21 9.85.51 13.57s9.64 3.89 13.57.51z" fill="#fff" />
  <path d="m52.91 684.15c-1.5-6.44-7.38-8.8-12.2-8.27-3.58.39-5.96 2.02-8.27 3.6-2.47 1.69-4.8 3.28-8.72 3.28-1.8 0-3.42-.98-4.03-2.45-.69-1.66.03-3.68 2.03-5.68l.06-.06c.43.37.86.71 1.15.89.62.38 1.42.32 1.99-.13l12.63-10.24c-1.98-.7-3.85-1.82-5.43-3.4s-2.71-3.45-3.4-5.43l-10.24 12.63c-.45.57-.52 1.37-.13 1.99.18.29.52.72.89 1.15l-.06.06c-3.05 3.05-4.08 6.55-2.81 9.6 1.16 2.79 4.11 4.67 7.35 4.67 5.04 0 8.08-2.08 10.75-3.91 2.12-1.45 3.94-2.7 6.63-2.99 2.35-.26 7.14.56 8.3 5.51.19.83.93 1.39 1.75 1.39.14 0 .27-.02.41-.05.97-.23 1.57-1.19 1.34-2.16z" fill="#fff" />
  <path d="m184.44 657.15v-8.81c0-2.97-4.04-7.19-9.44-7.19s-9.44 4.22-9.44 7.19v8.81h18.87z" fill="#fff" />
  <path d="m178.14 681.91h-6.27c-2.56 4.89 3.14 8.35 3.14 8.35s5.7-3.46 3.14-8.35z" fill="#fff" />
  <path d="m189.15 661.65h-28.29c-4.14 2.03-7.75 7.47-9.54 12.01h9.85l3.01 3.75h21.66l3.01-3.75h9.85c-1.79-4.54-5.4-9.98-9.54-12.01z" fill="#fff" />
  <path d="m125.03 644.71h-3.13l-.77 6.93h-32.26l-.77-6.93h-3.13l-1.08 21.12c-.06 1.08.55 2.08 1.52 2.55l19.59 9.97 19.59-9.97c.98-.46 1.58-1.47 1.52-2.55zm-5.13 18.02-14.9 7.08-14.9-7.08-.6-5.45h31.01l-.6 5.45z" fill="#fff" />
  <path d="m89.65 675.73c.72 4.62 3.62 8.61 7.78 10.74l7.41 3.78 7.41-3.78c4.17-2.13 7.06-6.12 7.78-10.74l-15.19 7.85z" fill="#fff" />
</svg>