<svg viewBox="0 0 126 150" xmlns="http://www.w3.org/2000/svg"><path d="m7.86 20.29a1.64 1.64 0 0 0 -1.64 1.64v32.19l3.28-2.25v-29.94a1.65 1.65 0 0 0 -1.64-1.64z" fill="#d2d2d2"/><path d="m17.31 46.5-11.09 7.62v27.24h6.67v-9.72c0-2.15-.72-6.69 3.26-6.69z" fill="#895e08"/><path d="m118.71 20.29a1.64 1.64 0 0 0 -1.64 1.64v29.94l3.28 2.25v-32.19a1.65 1.65 0 0 0 -1.64-1.64z" fill="#d2d2d2"/><path d="m109.25 46.5 11.1 7.62v27.24h-6.68v-9.72c0-2.15.73-6.69-3.25-6.69z" fill="#895e08"/><path d="m16.15 65c-4 0-3.26 4.54-3.26 6.69v16.8a4 4 0 0 0 3.88 3.51h1.51v-27z" fill="#ffc61a"/><path d="m0 0h126v150h-126z" fill="none" opacity=".6"/><path d="m94.73 44.18c-20.68 10.82-35.73 13.61-34.9 12.46s10.35-10.82 7.32-9a108.83 108.83 0 0 1 -38.66 13.81c-.95 11.81-.92 13.32-.32 19.92.53 5.95 2.61 8.54 3.16 11.74 1.24 7.19.51 15.17 1.49 21.2.65 10.4 5.79 15.25 5.79 15.25 3.18 3 2.47 2.28 6.48 7 7.33 8.66 12.1 12.44 17 12.41 5.14 0 12.23-7.19 14.71-9.41s5.36-5.53 9.4-9.8c0 0 3.06-2.67 4.71-15.48.94-6.09.49-13.23 3.52-21.53 3-8.14 2.71-11.46 2.71-11.46 1-8.54 1-29.48 1-29.48-.04-1.06.2-9.52-3.41-7.63z" fill="#d2d2d2"/><path d="m102.63 59.17a5.86 5.86 0 0 0 -4.63 2.56c-.11 6.62-.36 14.94-.9 19.59a13.53 13.53 0 0 1 -.29 3v8c0 2.28 2.41 5.81 5.39 5.81a6.27 6.27 0 0 0 6.23-5.81v-27.67c.01-3.1-1.94-5.48-5.8-5.48z" fill="#167085"/><path d="m28.17 81.37c-.59-6.6-.63-8.11.32-19.88a5.86 5.86 0 0 0 -4.71-2.29 5.19 5.19 0 0 0 -5.5 5.45v27.67a6.5 6.5 0 0 0 6.23 5.81c3 0 5.39-3.53 5.39-5.81v-3.63a25.8 25.8 0 0 1 -1.73-7.32z" fill="#167085"/><path d="m110.42 65h-2v27h1.35a4 4 0 0 0 3.88-3.58v-16.78c.02-2.15.75-6.64-3.23-6.64z" fill="#ffc61a"/><path d="m109.25 46.5 7.81 5.36c-2.49-25.13-10.71-33.29-20.24-40.36-9.37-6.94-20.82-10.18-32.6-10.5h-.94-.94c-11.8.3-23.23 3.54-32.59 10.48-9.54 7.09-17.75 15.25-20.24 40.38l7.8-5.36a63.45 63.45 0 0 1 1.32-6.93c3.57-10.75 9.48-17.91 16-22.65 10.37-7.49 22.17-8.92 28.65-9.05 6.48.13 18.33 1.56 28.72 9.13 6.51 4.74 12.41 11.9 16 22.65a61.37 61.37 0 0 1 1.32 6.92z" fill="#ffc61a"/><path d="m32.81 114.31c-1-6-.25-14-1.49-21.2a24.57 24.57 0 0 0 -1.43-4.42v3.63c0 2.28-2.41 5.81-5.39 5.81a6.5 6.5 0 0 1 -6.23-5.81v-.32h-1.5a4 4 0 0 1 -3.88-3.58v-7.06h-3.07c-3.82 10.14-9.97 13.35-9.26 13.36 8.15.06 11.44-3.57 11.44-3.57-1.78 5.52-12.18 11-11.27 11.17a22.79 22.79 0 0 0 16.62-4.18c1.47 8.53 4.91 22.69 12.09 27.92.68.55.14-2.81.14-3.56.55.36 3.05 4.56 9 7.06.02 0-5.12-4.85-5.77-15.25z"/><path d="m109.79 92h-1.35v.3a6.27 6.27 0 0 1 -6.23 5.81c-3 0-5.39-3.53-5.39-5.81v-8a52.05 52.05 0 0 1 -2.42 8.5c-3 8.3-2.58 15.44-3.52 21.53-1.65 12.81-4.71 15.48-4.71 15.48 5.89-2.65 8.12-8.18 8.27-7.59.33 1.26-.61 3.47-.63 5.55a22 22 0 0 0 7.57-9c.52 1.23.55 2.86 1.21 4.1 0 0 8.9-14.46 10-25.8.25-2.64.36-4.81.37-6.66a4.06 4.06 0 0 1 -3.17 1.59z"/><path d="m98.1 51.84s0 4.35-.09 9.89a5.86 5.86 0 0 1 4.62-2.56c3.86 0 5.81 2.38 5.81 5.48v.35h2l-1.17-18.43a61.37 61.37 0 0 0 -1.32-6.92c-3.59-10.8-9.49-17.96-15.95-22.65-10.39-7.57-22.24-9-28.72-9.13-6.48.13-18.28 1.56-28.66 9.13-6.51 4.74-12.42 11.9-16 22.65a63.45 63.45 0 0 0 -1.32 6.93l-1.15 18.42h2.13v-.3a5.19 5.19 0 0 1 5.5-5.45 5.86 5.86 0 0 1 4.71 2.29 108.83 108.83 0 0 0 38.66-13.91c3-1.81-6.53 8-7.32 9s14.22-1.63 34.9-12.45c3.61-1.89 3.37 6.57 3.37 7.66z"/></svg>